<svg id="Layer_5" enable-background="new 0 0 64 64" height="512" viewBox="0 0 64 64" width="512" xmlns="http://www.w3.org/2000/svg"><g><g><g><path d="m43.04 36.2c-.26-.49-.47-1.01-.64-1.54l-2.4-.66v-2-2l2.4-.66c.17-.53.38-1.05.64-1.54l-1.23-2.16 2.2-2.19-.01-.01v-3.44-14h-24v10h-10v4 12 4h12c1.1 0 2 .9 2 2v2c0 1.1-.9 2-2 2v4c1.1 0 2 .9 2 2v2c0 1.1-.9 2-2 2v4c1.1 0 2 .9 2 2v2h20v-19.44l-2.19-2.2z" fill="#e6e9ed"/></g><g><path d="m24 10h16v6h-16z" fill="#ff826e"/></g><g><path d="m20 6v10h-10z" fill="#b4dd7f"/></g><g><path d="m28 44h12v12h-12z" fill="#4fc1e9"/></g><g><path d="m46.8 24.04c.49-.26 1.01-.47 1.54-.64l.66-2.4h4l.66 2.4c.53.17 1.05.38 1.54.64l2.16-1.23 2.83 2.83-1.23 2.16c.26.49.47 1.01.64 1.54l2.4.66v4l-2.4.66c-.17.53-.38 1.05-.64 1.54l1.23 2.16-2.83 2.83-2.16-1.23c-.49.26-1.01.47-1.54.64l-.66 2.4h-4l-.66-2.4c-.53-.17-1.05-.38-1.54-.64l-2.16 1.23-.64-.63-2.19-2.2 1.23-2.16c-.26-.49-.47-1.01-.64-1.54l-2.4-.66v-2-2l2.4-.66c.17-.53.38-1.05.64-1.54l-1.23-2.16 2.2-2.19.63-.64zm9.2 7.96c0-2.76-2.24-5-5-5s-5 2.24-5 5 2.24 5 5 5 5-2.24 5-5z" fill="#fcd770"/></g><g><path d="m24 58v2c0 1.1-.9 2-2 2h-18c-1.1 0-2-.9-2-2v-2c0-1.1.9-2 2-2h18c1.1 0 2 .9 2 2z" fill="#ff826e"/></g><g><path d="m24 48v2c0 1.1-.9 2-2 2h-18c-1.1 0-2-.9-2-2v-2c0-1.1.9-2 2-2h18c1.1 0 2 .9 2 2z" fill="#ff826e"/></g><g><path d="m24 38v2c0 1.1-.9 2-2 2h-18c-1.1 0-2-.9-2-2v-2c0-1.1.9-2 2-2h6 12c1.1 0 2 .9 2 2z" fill="#ff826e"/></g><g><path d="m4 42h18v4h-18z" fill="#b4dd7f"/></g><g><path d="m4 52h18v4h-18z" fill="#b4dd7f"/></g></g><g><path d="m51 26c-3.309 0-6 2.691-6 6s2.691 6 6 6 6-2.691 6-6-2.691-6-6-6zm0 10c-2.206 0-4-1.794-4-4s1.794-4 4-4 4 1.794 4 4-1.794 4-4 4z"/><path d="m7 6c0-1.654 1.346-3 3-3h37c1.654 0 3 1.346 3 3v7.697l-2.168-3.252-1.664 1.109 4.832 7.249 4.832-7.248-1.664-1.109-2.168 3.251v-7.697c0-2.757-2.243-5-5-5h-37c-2.757 0-5 2.243-5 5v5h2z"/><path d="m5 13h2v2h-2z"/><path d="m5 17h2v2h-2z"/><path d="m41 9h-18v8h18zm-2 6h-14v-4h14z"/><path d="m63 34.764v-5.527l-2.625-.718c-.086-.229-.181-.458-.286-.685l1.35-2.366-3.908-3.908-2.366 1.35c-.227-.104-.455-.2-.685-.286l-.717-2.624h-5.526l-.718 2.625c-.229.086-.458.181-.685.286l-1.834-1.047v-16.864h-25.414l-10.586 10.586v19.414h-5c-1.654 0-3 1.346-3 3v2c0 1.302.839 2.402 2 2.816v2.369c-1.161.413-2 1.513-2 2.815v2c0 1.302.839 2.402 2 2.816v2.369c-1.161.413-2 1.513-2 2.815v2c0 1.654 1.346 3 3 3h18c1.302 0 2.402-.839 2.816-2h20.184v-18.864l1.834-1.047c.226.104.455.2.685.286l.718 2.625h5.526l.718-2.625c.23-.086.459-.182.685-.286l2.365 1.351 3.908-3.907-1.35-2.367c.104-.227.2-.455.286-.684zm-44-26.35v6.586h-6.586zm-16 29.586c0-.552.449-1 1-1h18c.551 0 1 .448 1 1v2c0 .552-.449 1-1 1h-18c-.551 0-1-.448-1-1zm18 5v2h-16v-2zm-18 5c0-.552.449-1 1-1h18c.551 0 1 .448 1 1v2c0 .552-.449 1-1 1h-18c-.551 0-1-.448-1-1zm18 5v2h-16v-2zm2 7c0 .552-.449 1-1 1h-18c-.551 0-1-.448-1-1v-2c0-.552.449-1 1-1h18c.551 0 1 .448 1 1zm2-1v-1c0-1.302-.839-2.402-2-2.816v-2.369c1.161-.414 2-1.514 2-2.816v-2c0-1.302-.839-2.402-2-2.816v-2.369c1.161-.414 2-1.514 2-2.816v-2c0-1.654-1.346-3-3-3h-11v-17.998h10v-10h22v16.03l-2.439 2.439 1.35 2.366c-.104.227-.2.455-.286.685l-2.625.717v5.527l2.625.718c.086.229.181.457.286.684l-1.35 2.367 2.439 2.438v18.029zm33.946-20.804-1.75 1.749-1.979-1.13-.486.258c-.445.236-.906.429-1.369.572l-.525.161-.6 2.194h-2.474l-.6-2.193-.525-.161c-.463-.144-.924-.336-1.369-.572l-.486-.258-1.979 1.13-1.75-1.749 1.129-1.979-.256-.485c-.238-.45-.43-.912-.572-1.371l-.162-.524-2.193-.602v-2.473l2.193-.6.162-.525c.142-.46.334-.922.572-1.371l.256-.486-1.129-1.979 1.75-1.75 1.979 1.129.486-.256c.449-.237.91-.43 1.371-.572l.525-.162.6-2.193h2.474l.6 2.193.525.162c.46.142.922.334 1.371.572l.486.256 1.979-1.129 1.75 1.75-1.129 1.979.256.486c.237.449.43.91.572 1.371l.162.525 2.193.6v2.473l-2.193.601-.162.524c-.142.459-.334.921-.572 1.371l-.256.485z"/><path d="m13 19h2v2h-2z"/><path d="m17 19h24v2h-24z"/><path d="m13 23h26v2h-26z"/><path d="m13 27h26v2h-26z"/><path d="m13 31h16v2h-16z"/><path d="m31 31h2v2h-2z"/><path d="m35 31h2v2h-2z"/><path d="m27 57h14v-14h-14zm2-12h10v10h-10z"/><path d="m27 39h12v2h-12z"/></g></g></svg>