<?xml version="1.0" encoding="UTF-8"?>
<!DOCTYPE svg PUBLIC "-//W3C//DTD SVG 1.1//EN" "http://www.w3.org/Graphics/SVG/1.1/DTD/svg11.dtd">
<svg version="1.1" xmlns="http://www.w3.org/2000/svg" xmlns:xlink="http://www.w3.org/1999/xlink" x="0" y="0" width="512" height="512" viewBox="0, 0, 512, 512">
  <g id="Background">
    <rect x="0" y="0" width="512" height="512" fill="#000000" fill-opacity="0"/>
  </g>
  <g id="original" display="none">
    <path d="M118.55,63.57 C118.55,93.935 93.935,118.55 63.57,118.55 C33.205,118.55 8.59,93.935 8.59,63.57 C8.59,33.205 33.205,8.59 63.57,8.59 C93.935,8.59 118.55,33.205 118.55,63.57 z" fill="#00C3FF"/>
    <path d="M81.897,100.224 C51.532,100.224 26.917,75.609 26.917,45.244 C26.917,34.763 29.903,25.002 34.993,16.667 C19.181,26.322 8.591,43.687 8.591,63.57 C8.591,93.935 33.206,118.55 63.571,118.55 C83.454,118.55 100.82,107.96 110.475,92.147 C102.139,97.238 92.379,100.224 81.897,100.224 z" fill="#00AAF0"/>
    <path d="M91.06,72.734 C85.995,72.734 81.897,68.636 81.897,63.571 C81.897,53.468 73.673,45.244 63.57,45.244 C58.505,45.244 54.407,41.146 54.407,36.081 C54.407,31.016 58.505,26.918 63.57,26.918 C83.784,26.918 100.223,43.357 100.223,63.571 C100.224,68.635 96.125,72.734 91.06,72.734 z" fill="#7DD7FF"/>
    <path d="M310.98,63.57 C310.98,93.935 286.365,118.55 256,118.55 C225.635,118.55 201.02,93.935 201.02,63.57 C201.02,33.205 225.635,8.59 256,8.59 C286.365,8.59 310.98,33.205 310.98,63.57 z" fill="#00C3FF"/>
    <path d="M274.327,100.224 C243.962,100.224 219.347,75.609 219.347,45.244 C219.347,34.763 222.333,25.002 227.423,16.667 C211.611,26.322 201.02,43.687 201.02,63.571 C201.02,93.936 225.635,118.551 256,118.551 C275.883,118.551 293.249,107.961 302.904,92.148 C294.568,97.238 284.808,100.224 274.327,100.224 z" fill="#00AAF0"/>
    <path d="M283.49,72.734 C278.425,72.734 274.327,68.636 274.327,63.571 C274.327,53.468 266.103,45.244 256,45.244 C250.935,45.244 246.837,41.146 246.837,36.081 C246.837,31.016 250.935,26.918 256,26.918 C276.214,26.918 292.653,43.357 292.653,63.571 C292.653,68.635 288.555,72.734 283.49,72.734 z" fill="#7DD7FF"/>
    <path d="M503.41,63.57 C503.41,93.935 478.795,118.55 448.43,118.55 C418.065,118.55 393.45,93.935 393.45,63.57 C393.45,33.205 418.065,8.59 448.43,8.59 C478.795,8.59 503.41,33.205 503.41,63.57 z" fill="#00C3FF"/>
    <path d="M466.756,100.224 C436.391,100.224 411.776,75.609 411.776,45.244 C411.776,34.763 414.762,25.002 419.852,16.667 C404.04,26.322 393.449,43.687 393.449,63.571 C393.449,93.936 418.064,118.551 448.429,118.551 C468.312,118.551 485.678,107.961 495.333,92.148 C486.998,97.238 477.238,100.224 466.756,100.224 z" fill="#00AAF0"/>
    <path d="M475.919,72.734 C470.854,72.734 466.756,68.636 466.756,63.571 C466.756,53.468 458.532,45.244 448.429,45.244 C443.364,45.244 439.266,41.146 439.266,36.081 C439.266,31.016 443.364,26.918 448.429,26.918 C468.643,26.918 485.082,43.357 485.082,63.571 C485.083,68.635 480.984,72.734 475.919,72.734 z" fill="#7DD7FF"/>
    <path d="M310.98,256 C310.98,286.365 286.365,310.98 256,310.98 C225.635,310.98 201.02,286.365 201.02,256 C201.02,225.635 225.635,201.02 256,201.02 C286.365,201.02 310.98,225.635 310.98,256 z" fill="#00C3FF"/>
    <path d="M274.327,292.653 C243.962,292.653 219.347,268.038 219.347,237.673 C219.347,227.192 222.333,217.431 227.423,209.096 C211.611,218.752 201.02,236.116 201.02,256 C201.02,286.365 225.635,310.98 256,310.98 C275.883,310.98 293.249,300.39 302.904,284.577 C294.568,289.667 284.808,292.653 274.327,292.653 z" fill="#00AAF0"/>
    <path d="M283.49,265.163 C278.425,265.163 274.327,261.065 274.327,256 C274.327,245.897 266.103,237.673 256,237.673 C250.935,237.673 246.837,233.575 246.837,228.51 C246.837,223.445 250.935,219.347 256,219.347 C276.214,219.347 292.653,235.786 292.653,256 C292.653,261.065 288.555,265.163 283.49,265.163 z" fill="#7DD7FF"/>
    <path d="M503.41,256 C503.41,286.365 478.795,310.98 448.43,310.98 C418.065,310.98 393.45,286.365 393.45,256 C393.45,225.635 418.065,201.02 448.43,201.02 C478.795,201.02 503.41,225.635 503.41,256 z" fill="#00C3FF"/>
    <path d="M466.756,292.653 C436.391,292.653 411.776,268.038 411.776,237.673 C411.776,227.192 414.762,217.431 419.852,209.096 C404.04,218.752 393.449,236.116 393.449,256 C393.449,286.365 418.064,310.98 448.429,310.98 C468.312,310.98 485.678,300.39 495.333,284.577 C486.998,289.667 477.238,292.653 466.756,292.653 z" fill="#00AAF0"/>
    <path d="M475.919,265.163 C470.854,265.163 466.756,261.065 466.756,256 C466.756,245.897 458.532,237.673 448.429,237.673 C443.364,237.673 439.266,233.575 439.266,228.51 C439.266,223.445 443.364,219.347 448.429,219.347 C468.643,219.347 485.082,235.786 485.082,256 C485.083,261.065 480.984,265.163 475.919,265.163 z" fill="#7DD7FF"/>
    <path d="M503.41,448.43 C503.41,478.795 478.795,503.41 448.43,503.41 C418.065,503.41 393.45,478.795 393.45,448.43 C393.45,418.065 418.065,393.45 448.43,393.45 C478.795,393.45 503.41,418.065 503.41,448.43 z" fill="#00C3FF"/>
    <path d="M466.756,485.083 C436.391,485.083 411.776,460.468 411.776,430.103 C411.776,419.622 414.762,409.861 419.852,401.526 C404.04,411.182 393.449,428.546 393.449,448.43 C393.449,478.795 418.064,503.41 448.429,503.41 C468.312,503.41 485.678,492.82 495.333,477.007 C486.998,482.097 477.238,485.083 466.756,485.083 z" fill="#00AAF0"/>
    <path d="M475.919,457.593 C470.854,457.593 466.756,453.495 466.756,448.43 C466.756,438.327 458.532,430.103 448.429,430.103 C443.364,430.103 439.266,426.005 439.266,420.94 C439.266,415.875 443.364,411.777 448.429,411.777 C468.643,411.777 485.082,428.216 485.082,448.43 C485.083,453.495 480.984,457.593 475.919,457.593 z" fill="#7DD7FF"/>
    <path d="M302.658,225.661 C298.331,227.605 296.397,232.69 298.341,237.018 C301.027,242.996 302.388,249.383 302.388,256 C302.388,281.579 281.578,302.389 255.999,302.389 C230.42,302.389 209.61,281.579 209.61,256 C209.61,230.421 230.42,209.611 255.999,209.611 C262.767,209.611 269.289,211.034 275.382,213.84 C279.691,215.82 284.794,213.941 286.779,209.631 C288.763,205.321 286.879,200.219 282.57,198.234 C274.209,194.383 265.269,192.43 256.001,192.43 C220.948,192.43 192.431,220.947 192.431,256 C192.431,291.053 220.948,319.57 256.001,319.57 C291.054,319.57 319.571,291.053 319.571,256 C319.571,246.94 317.702,238.184 314.016,229.977 C312.07,225.65 306.987,223.714 302.658,225.661 z" fill="#000000"/>
    <path d="M302.658,33.232 C298.331,35.176 296.397,40.261 298.341,44.589 C301.028,50.566 302.389,56.954 302.389,63.571 C302.389,89.15 281.579,109.96 256,109.96 C230.421,109.96 209.611,89.15 209.611,63.571 C209.611,37.992 230.421,17.181 256,17.181 C262.768,17.181 269.29,18.604 275.383,21.41 C279.692,23.39 284.795,21.511 286.78,17.201 C288.764,12.891 286.88,7.789 282.571,5.804 C274.207,1.953 265.268,0 256,0 C220.947,0 192.43,28.517 192.43,63.57 C192.43,98.623 220.947,127.14 256,127.14 C291.053,127.14 319.57,98.623 319.57,63.57 C319.57,54.51 317.701,45.754 314.015,37.547 C312.07,33.22 306.987,31.287 302.658,33.232 z" fill="#000000"/>
    <path d="M110.229,33.232 C105.902,35.176 103.969,40.261 105.913,44.589 C108.599,50.566 109.96,56.954 109.96,63.571 C109.96,89.15 89.15,109.96 63.571,109.96 C37.992,109.96 17.181,89.15 17.181,63.57 C17.181,37.99 37.991,17.181 63.57,17.181 C70.339,17.181 76.86,18.604 82.952,21.41 C87.262,23.393 92.364,21.51 94.349,17.201 C96.334,12.892 94.45,7.789 90.141,5.805 C81.778,1.953 72.839,0 63.57,0 C28.517,0 0,28.517 0,63.57 C0,98.623 28.517,127.14 63.57,127.14 C98.623,127.14 127.14,98.623 127.14,63.57 C127.14,54.51 125.271,45.754 121.585,37.547 C119.641,33.22 114.557,31.286 110.229,33.232 z" fill="#000000"/>
    <path d="M448.43,127.141 C483.483,127.141 512,98.624 512,63.571 C512,54.511 510.131,45.755 506.445,37.548 C504.501,33.221 499.416,31.287 495.088,33.231 C490.76,35.175 488.827,40.26 490.771,44.588 C493.458,50.566 494.819,56.954 494.819,63.571 C494.819,89.15 474.009,109.96 448.43,109.96 C422.851,109.96 402.04,89.15 402.04,63.57 C402.04,37.99 422.85,17.181 448.429,17.181 C455.197,17.181 461.719,18.604 467.812,21.41 C472.122,23.39 477.224,21.511 479.209,17.201 C481.193,12.891 479.309,7.789 475,5.804 C466.637,1.953 457.697,0 448.43,0 C413.377,0 384.86,28.517 384.86,63.57 C384.86,98.623 413.376,127.141 448.43,127.141 z" fill="#000000"/>
    <path d="M495.088,225.661 C490.761,227.605 488.827,232.69 490.771,237.018 C493.457,242.996 494.818,249.383 494.818,256 C494.818,281.579 474.008,302.389 448.429,302.389 C422.85,302.389 402.04,281.579 402.04,256 C402.04,230.421 422.85,209.611 448.429,209.611 C455.197,209.611 461.719,211.034 467.812,213.84 C472.122,215.82 477.224,213.941 479.209,209.631 C481.193,205.321 479.309,200.219 475,198.234 C466.637,194.383 457.697,192.43 448.43,192.43 C413.377,192.43 384.86,220.947 384.86,256 C384.86,291.053 413.377,319.57 448.43,319.57 C483.483,319.57 512,291.053 512,256 C512,246.94 510.131,238.184 506.445,229.977 C504.501,225.65 499.417,223.714 495.088,225.661 z" fill="#000000"/>
    <path d="M495.088,418.091 C490.761,420.035 488.827,425.12 490.771,429.448 C493.457,435.426 494.818,441.813 494.818,448.43 C494.818,474.009 474.008,494.819 448.429,494.819 C422.85,494.819 402.041,474.009 402.041,448.43 C402.041,422.851 422.851,402.041 448.43,402.041 C455.198,402.041 461.72,403.464 467.813,406.27 C472.123,408.25 477.225,406.37 479.21,402.061 C481.194,397.751 479.31,392.649 475.001,390.664 C466.638,386.813 457.698,384.86 448.431,384.86 C413.378,384.86 384.861,413.377 384.861,448.43 C384.861,483.483 413.376,512 448.43,512 C483.484,512 512,483.483 512,448.43 C512,439.37 510.131,430.614 506.445,422.407 C504.501,418.078 499.417,416.145 495.088,418.091 z" fill="#000000"/>
  </g>
  <g id="Layer_1_Copy">
    <path d="M20.015,-0 L491.985,-0 C503.039,-0 512,8.947 512,19.983 L512,492.017 C512,503.053 503.039,512 491.985,512 L20.015,512 C8.961,512 0,503.053 0,492.017 L0,19.983 C0,8.947 8.961,-0 20.015,-0 z" fill="#005B77"/>
    <g display="none">
      <path d="M191.569,166.537 L338.855,361.651" fill-opacity="0" stroke="#000000" stroke-width="25" stroke-linecap="round"/>
      <path d="M338.855,166.537 L191.569,361.651" fill-opacity="0" stroke="#000000" stroke-width="25" stroke-linecap="round"/>
    </g>
    <g>
      <g>
        <path d="M307.543,436.259 C307.543,464.707 284.466,487.769 256,487.769 C227.533,487.769 204.456,464.707 204.456,436.259 C204.456,407.811 227.533,384.75 256,384.75 C284.466,384.75 307.543,407.811 307.543,436.259 z" fill="#00C3FF"/>
        <path d="M273.181,470.599 C244.714,470.599 221.637,447.538 221.637,419.089 C221.637,409.27 224.437,400.125 229.209,392.316 C214.385,401.362 204.456,417.63 204.456,436.259 C204.456,464.708 227.532,487.769 256,487.769 C274.64,487.769 290.92,477.848 299.972,463.033 C292.157,467.801 283.007,470.599 273.181,470.599 z" fill="#00AAF0"/>
        <path d="M281.771,444.844 C277.023,444.844 273.181,441.005 273.181,436.259 C273.181,426.794 265.471,419.089 256,419.089 C251.251,419.089 247.409,415.25 247.409,410.504 C247.409,405.759 251.251,401.92 256,401.92 C274.95,401.92 290.362,417.321 290.362,436.259 C290.362,441.005 286.52,444.844 281.771,444.844 z" fill="#7DD7FF"/>
        <path d="M299.741,407.835 C295.685,409.657 293.872,414.421 295.694,418.475 C298.212,424.076 299.488,430.06 299.488,436.259 C299.488,460.224 279.979,479.72 255.999,479.72 C232.018,479.72 212.509,460.224 212.509,436.259 C212.509,412.295 232.018,392.798 255.999,392.798 C262.344,392.798 268.458,394.132 274.17,396.76 C278.21,398.615 282.994,396.855 284.855,392.817 C286.715,388.779 284.949,383.999 280.909,382.139 C273.07,378.532 264.689,376.702 256,376.702 C223.138,376.702 196.404,403.419 196.404,436.259 C196.404,469.1 223.138,495.817 256,495.817 C288.863,495.817 315.597,469.1 315.597,436.259 C315.597,427.771 313.845,419.568 310.39,411.879 C308.565,407.825 303.8,406.011 299.741,407.835 z" fill="#000000"/>
      </g>
      <g>
        <path d="M127.192,76.014 C127.192,104.462 104.116,127.523 75.649,127.523 C47.182,127.523 24.105,104.462 24.105,76.014 C24.105,47.566 47.182,24.504 75.649,24.504 C104.116,24.504 127.192,47.566 127.192,76.014 z" fill="#00C3FF"/>
        <path d="M92.83,110.354 C64.363,110.354 41.287,87.293 41.287,58.844 C41.287,49.025 44.086,39.88 48.858,32.071 C34.034,41.117 24.105,57.386 24.105,76.015 C24.105,104.463 47.182,127.524 75.649,127.524 C94.289,127.524 110.57,117.603 119.621,102.788 C111.806,107.557 102.656,110.354 92.83,110.354 z" fill="#00AAF0"/>
        <path d="M101.421,84.599 C96.672,84.599 92.83,80.76 92.83,76.015 C92.83,66.549 85.12,58.844 75.649,58.844 C70.9,58.844 67.058,55.005 67.058,50.26 C67.058,45.514 70.9,41.675 75.649,41.675 C94.599,41.675 110.011,57.077 110.011,76.015 C110.011,80.759 106.169,84.599 101.421,84.599 z" fill="#7DD7FF"/>
        <path d="M119.391,47.591 C115.334,49.412 113.521,54.176 115.343,58.231 C117.862,63.83 119.138,69.815 119.138,76.015 C119.138,99.979 99.629,119.476 75.649,119.476 C51.668,119.476 32.159,99.979 32.159,76.015 C32.159,52.05 51.668,32.553 75.649,32.553 C81.994,32.553 88.108,33.886 93.82,36.515 C97.86,38.37 102.644,36.609 104.505,32.571 C106.365,28.533 104.599,23.753 100.559,21.894 C92.718,18.286 84.337,16.456 75.649,16.456 C42.787,16.456 16.052,43.173 16.052,76.014 C16.052,108.854 42.787,135.571 75.649,135.571 C108.511,135.571 135.246,108.854 135.246,76.014 C135.246,67.526 133.493,59.322 130.038,51.633 C128.214,47.579 123.449,45.768 119.391,47.591 z" fill="#000000"/>
      </g>
      <g>
        <path d="M127.141,436.442 C127.141,464.89 104.064,487.952 75.597,487.952 C47.13,487.952 24.053,464.89 24.053,436.442 C24.053,407.994 47.13,384.933 75.597,384.933 C104.064,384.933 127.141,407.994 127.141,436.442 z" fill="#00C3FF"/>
        <path d="M92.778,470.783 C64.311,470.783 41.235,447.721 41.235,419.273 C41.235,409.454 44.034,400.309 48.806,392.5 C33.982,401.545 24.054,417.814 24.054,436.442 C24.054,464.891 47.131,487.952 75.598,487.952 C94.238,487.952 110.519,478.031 119.57,463.216 C111.755,467.985 102.605,470.783 92.778,470.783 z" fill="#00AAF0"/>
        <path d="M101.369,445.028 C96.62,445.028 92.778,441.189 92.778,436.443 C92.778,426.978 85.068,419.273 75.597,419.273 C70.848,419.273 67.007,415.434 67.007,410.688 C67.007,405.943 70.848,402.104 75.597,402.104 C94.547,402.104 109.959,417.505 109.959,436.443 C109.96,441.188 106.117,445.028 101.369,445.028 z" fill="#7DD7FF"/>
        <path d="M119.34,408.019 C115.283,409.841 113.471,414.605 115.293,418.659 C117.812,424.259 119.087,430.244 119.087,436.443 C119.087,460.408 99.578,479.904 75.598,479.904 C51.617,479.904 32.107,460.408 32.107,436.442 C32.107,412.477 51.617,392.981 75.597,392.981 C81.943,392.981 88.056,394.315 93.767,396.943 C97.808,398.801 102.591,397.037 104.452,393 C106.313,388.963 104.547,384.182 100.507,382.323 C92.667,378.715 84.287,376.885 75.597,376.885 C42.735,376.885 16,403.602 16,436.442 C16,469.283 42.735,496 75.597,496 C108.459,496 135.194,469.283 135.194,436.442 C135.194,427.954 133.442,419.751 129.986,412.062 C128.163,408.008 123.397,406.196 119.34,408.019 z" fill="#000000"/>
      </g>
      <g>
        <path d="M487.947,75.743 C487.947,104.191 464.87,127.253 436.403,127.253 C407.936,127.253 384.859,104.191 384.859,75.743 C384.859,47.295 407.936,24.233 436.403,24.233 C464.87,24.233 487.947,47.295 487.947,75.743 z" fill="#00C3FF"/>
        <path d="M453.584,110.083 C425.117,110.083 402.04,87.022 402.04,58.573 C402.04,48.754 404.839,39.609 409.611,31.8 C394.787,40.846 384.858,57.115 384.858,75.744 C384.858,104.192 407.935,127.254 436.402,127.254 C455.042,127.254 471.323,117.332 480.375,102.517 C472.561,107.286 463.411,110.083 453.584,110.083 z" fill="#00AAF0"/>
        <path d="M462.174,84.328 C457.426,84.328 453.584,80.489 453.584,75.744 C453.584,66.278 445.874,58.573 436.402,58.573 C431.654,58.573 427.812,54.734 427.812,49.989 C427.812,45.244 431.654,41.404 436.402,41.404 C455.353,41.404 470.764,56.806 470.764,75.744 C470.765,80.488 466.922,84.328 462.174,84.328 z" fill="#7DD7FF"/>
        <path d="M436.403,135.301 C469.265,135.301 496,108.584 496,75.744 C496,67.256 494.248,59.052 490.792,51.363 C488.97,47.309 484.203,45.497 480.145,47.319 C476.088,49.14 474.275,53.904 476.098,57.959 C478.617,63.56 479.893,69.544 479.893,75.744 C479.893,99.708 460.383,119.205 436.403,119.205 C412.423,119.205 392.913,99.708 392.913,75.743 C392.913,51.777 412.422,32.282 436.402,32.282 C442.747,32.282 448.862,33.615 454.574,36.244 C458.614,38.099 463.398,36.338 465.258,32.3 C467.118,28.263 465.352,23.483 461.312,21.623 C453.472,18.015 445.091,16.185 436.403,16.185 C403.541,16.185 376.806,42.902 376.806,75.743 C376.806,108.583 403.54,135.301 436.403,135.301 z" fill="#000000"/>
      </g>
      <g>
        <path d="M307.57,75.558 C307.57,104.006 284.493,127.067 256.026,127.067 C227.559,127.067 204.482,104.006 204.482,75.558 C204.482,47.11 227.559,24.048 256.026,24.048 C284.493,24.048 307.57,47.11 307.57,75.558 z" fill="#00C3FF"/>
        <path d="M273.207,109.897 C244.739,109.897 221.663,86.836 221.663,58.387 C221.663,48.568 224.462,39.423 229.234,31.614 C214.41,40.661 204.481,56.929 204.481,75.558 C204.481,104.006 227.558,127.067 256.025,127.067 C274.665,127.067 290.946,117.146 299.997,102.331 C292.183,107.1 283.033,109.897 273.207,109.897 z" fill="#00AAF0"/>
        <path d="M281.797,84.142 C277.048,84.142 273.207,80.303 273.207,75.558 C273.207,66.092 265.497,58.387 256.025,58.387 C251.277,58.387 247.435,54.548 247.435,49.803 C247.435,45.057 251.277,41.218 256.025,41.218 C274.976,41.218 290.387,56.619 290.387,75.558 C290.388,80.303 286.545,84.142 281.797,84.142 z" fill="#7DD7FF"/>
        <path d="M299.768,47.134 C295.711,48.955 293.898,53.719 295.721,57.774 C298.239,63.374 299.515,69.358 299.515,75.558 C299.515,99.522 280.005,119.019 256.025,119.019 C232.045,119.019 212.535,99.522 212.535,75.558 C212.535,51.593 232.045,32.097 256.025,32.097 C262.37,32.097 268.484,33.43 274.197,36.059 C278.237,37.914 283.02,36.153 284.881,32.115 C286.741,28.077 284.975,23.297 280.935,21.438 C273.095,17.83 264.714,16 256.026,16 C223.164,16 196.429,42.717 196.429,75.558 C196.429,108.398 223.164,135.115 256.026,135.115 C288.888,135.115 315.623,108.398 315.623,75.558 C315.623,67.069 313.871,58.866 310.415,51.177 C308.592,47.123 303.826,45.309 299.768,47.134 z" fill="#000000"/>
      </g>
      <g>
        <path d="M487.947,436.311 C487.947,464.759 464.87,487.821 436.403,487.821 C407.936,487.821 384.859,464.759 384.859,436.311 C384.859,407.863 407.936,384.801 436.403,384.801 C464.87,384.801 487.947,407.863 487.947,436.311 z" fill="#00C3FF"/>
        <path d="M453.584,470.651 C425.117,470.651 402.04,447.589 402.04,419.141 C402.04,409.322 404.839,400.177 409.611,392.368 C394.787,401.414 384.858,417.682 384.858,436.311 C384.858,464.76 407.935,487.821 436.402,487.821 C455.042,487.821 471.323,477.899 480.375,463.085 C472.561,467.853 463.411,470.651 453.584,470.651 z" fill="#00AAF0"/>
        <path d="M462.174,444.896 C457.426,444.896 453.584,441.057 453.584,436.311 C453.584,426.846 445.874,419.141 436.402,419.141 C431.654,419.141 427.812,415.302 427.812,410.556 C427.812,405.811 431.654,401.972 436.402,401.972 C455.353,401.972 470.764,417.373 470.764,436.311 C470.765,441.057 466.922,444.896 462.174,444.896 z" fill="#7DD7FF"/>
        <path d="M480.145,407.887 C476.088,409.708 474.275,414.473 476.098,418.527 C478.616,424.128 479.892,430.112 479.892,436.311 C479.892,460.276 460.382,479.772 436.402,479.772 C412.422,479.772 392.913,460.276 392.913,436.311 C392.913,412.347 412.423,392.85 436.403,392.85 C442.748,392.85 448.862,394.183 454.575,396.812 C458.615,398.667 463.398,396.906 465.259,392.869 C467.119,388.831 465.353,384.051 461.313,382.191 C453.473,378.583 445.092,376.754 436.404,376.754 C403.542,376.754 376.807,403.471 376.807,436.311 C376.807,469.152 403.54,495.869 436.403,495.869 C469.266,495.869 496,469.152 496,436.311 C496,427.823 494.248,419.62 490.792,411.931 C488.97,407.875 484.203,406.064 480.145,407.887 z" fill="#000000"/>
      </g>
      <g>
        <path d="M260.12,162.842 L381.057,345.641" fill-opacity="0" stroke="#000000" stroke-width="25" stroke-linecap="round"/>
        <path d="M260.453,162.842 L381.057,162.842 L381.057,345.641 L260.453,345.641 L260.453,162.842 z" fill-opacity="0" stroke="#000000" stroke-width="1" display="none"/>
        <path d="M139.515,162.842 L260.12,162.842 L260.12,345.641 L139.515,345.641 L139.515,162.842 z" fill-opacity="0" stroke="#000000" stroke-width="1" display="none"/>
        <path d="M260.12,162.842 L138.84,345.64" fill-opacity="0" stroke="#000000" stroke-width="25" stroke-linecap="round"/>
      </g>
      <g>
        <path d="M260.12,346.577 L381.057,163.779" fill-opacity="0" stroke="#000000" stroke-width="25" stroke-linecap="round"/>
        <path d="M260.453,346.577 L381.057,346.577 L381.057,163.779 L260.453,163.779 L260.453,346.577 z" fill-opacity="0" stroke="#000000" stroke-width="1" display="none"/>
        <path d="M139.515,346.577 L260.12,346.577 L260.12,163.779 L139.515,163.779 L139.515,346.577 z" fill-opacity="0" stroke="#000000" stroke-width="1" display="none"/>
        <path d="M260.12,346.577 L138.84,163.779" fill-opacity="0" stroke="#000000" stroke-width="25" stroke-linecap="round"/>
      </g>
      <path d="M74.961,162.842 L74.961,345.641" fill-opacity="0" stroke="#000000" stroke-width="25" stroke-linecap="round"/>
      <path d="M435.562,162.842 L435.562,345.64" fill-opacity="0" stroke="#000000" stroke-width="25" stroke-linecap="round"/>
    </g>
  </g>
</svg>
