<svg id="Capa_1" enable-background="new 0 0 512 512" height="512" viewBox="0 0 512 512" width="512" xmlns="http://www.w3.org/2000/svg"><g><g><g><path d="m367.118 136.801h-222.236c-5.579 0-10.102-4.523-10.102-10.102v-109.097c0-5.579 4.523-10.102 10.102-10.102h222.236c5.579 0 10.102 4.523 10.102 10.102v109.098c0 5.578-4.523 10.101-10.102 10.101z" fill="#e6f7fe"/></g><g><path d="m367.118 7.5h-23.725c5.579 0 10.102 4.523 10.102 10.102v109.098c0 5.579-4.523 10.102-10.102 10.102h23.725c5.579 0 10.102-4.523 10.102-10.102v-109.098c0-5.579-4.523-10.102-10.102-10.102z" fill="#d3effd"/></g><g><path d="m167.106 39.825h32.325v32.325h-32.325z" fill="#e175a5" transform="matrix(0 1 -1 0 239.256 -127.281)"/></g></g><g><g><path d="m367.118 320.65h-222.236c-5.579 0-10.102-4.523-10.102-10.102v-109.097c0-5.579 4.523-10.102 10.102-10.102h222.236c5.579 0 10.102 4.523 10.102 10.102v109.098c0 5.579-4.523 10.101-10.102 10.101z" fill="#f7e365"/></g><g><path d="m367.118 191.35h-23.725c5.579 0 10.102 4.523 10.102 10.102v109.098c0 5.579-4.523 10.102-10.102 10.102h23.725c5.579 0 10.102-4.523 10.102-10.102v-109.099c0-5.579-4.523-10.101-10.102-10.101z" fill="#f3d332"/></g><g><path d="m167.106 223.675h32.325v32.325h-32.325z" fill="#a2f5c3" transform="matrix(0 1 -1 0 423.106 56.569)"/></g></g><g><g><path d="m367.118 504.5h-222.236c-5.579 0-10.102-4.523-10.102-10.102v-109.097c0-5.579 4.523-10.102 10.102-10.102h222.236c5.579 0 10.102 4.523 10.102 10.102v109.098c0 5.578-4.523 10.101-10.102 10.101z" fill="#e175a5"/></g><g><path d="m367.118 375.199h-23.725c5.579 0 10.102 4.523 10.102 10.102v109.098c0 5.579-4.523 10.102-10.102 10.102h23.725c5.579 0 10.102-4.523 10.102-10.102v-109.098c0-5.579-4.523-10.102-10.102-10.102z" fill="#de5791"/></g><g><path d="m167.106 407.524h32.325v32.325h-32.325z" fill="#f7e365" transform="matrix(0 1 -1 0 606.955 240.419)"/></g></g><g><circle cx="458.033" cy="256" fill="#e175a5" r="16.163"/></g><g><circle cx="53.967" cy="256" fill="#e175a5" r="16.163"/></g><g><path d="m144.88 144.3h160.51c4.142 0 7.5-3.357 7.5-7.5s-3.358-7.5-7.5-7.5h-160.51c-1.434 0-2.6-1.166-2.6-2.6v-109.1c0-1.434 1.167-2.6 2.6-2.6h222.24c1.434 0 2.6 1.166 2.6 2.6v109.1c0 1.434-1.167 2.6-2.6 2.6h-26.73c-4.142 0-7.5 3.357-7.5 7.5s3.358 7.5 7.5 7.5h26.73c9.705 0 17.6-7.896 17.6-17.6v-109.1c0-9.704-7.896-17.6-17.6-17.6h-222.24c-9.705 0-17.6 7.896-17.6 17.6v109.1c0 9.704 7.895 17.6 17.6 17.6z"/><path d="m167.105 111.976h141.423c4.142 0 7.5-3.357 7.5-7.5s-3.358-7.5-7.5-7.5h-141.423c-4.142 0-7.5 3.357-7.5 7.5s3.358 7.5 7.5 7.5z"/><path d="m352.395 72.15c0-4.143-3.358-7.5-7.5-7.5h-113.139c-4.142 0-7.5 3.357-7.5 7.5s3.358 7.5 7.5 7.5h113.139c4.142 0 7.5-3.357 7.5-7.5z"/><path d="m344.895 47.325c4.142 0 7.5-3.357 7.5-7.5s-3.358-7.5-7.5-7.5h-60.61c-4.142 0-7.5 3.357-7.5 7.5s3.358 7.5 7.5 7.5z"/><path d="m231.756 47.325h20.204c4.142 0 7.5-3.357 7.5-7.5s-3.358-7.5-7.5-7.5h-20.204c-4.142 0-7.5 3.357-7.5 7.5s3.358 7.5 7.5 7.5z"/><path d="m167.105 79.65h32.325c4.142 0 7.5-3.357 7.5-7.5v-32.325c0-4.143-3.358-7.5-7.5-7.5h-32.325c-4.142 0-7.5 3.357-7.5 7.5v32.325c0 4.143 3.358 7.5 7.5 7.5zm7.5-32.325h17.325v17.325h-17.325z"/><path d="m167.105 295.825h141.423c4.142 0 7.5-3.357 7.5-7.5s-3.358-7.5-7.5-7.5h-141.423c-4.142 0-7.5 3.357-7.5 7.5s3.358 7.5 7.5 7.5z"/><path d="m231.756 263.5h113.139c4.142 0 7.5-3.357 7.5-7.5s-3.358-7.5-7.5-7.5h-113.139c-4.142 0-7.5 3.357-7.5 7.5s3.358 7.5 7.5 7.5z"/><path d="m344.895 231.175c4.142 0 7.5-3.357 7.5-7.5s-3.358-7.5-7.5-7.5h-60.61c-4.142 0-7.5 3.357-7.5 7.5s3.358 7.5 7.5 7.5z"/><path d="m231.756 231.175h20.204c4.142 0 7.5-3.357 7.5-7.5s-3.358-7.5-7.5-7.5h-20.204c-4.142 0-7.5 3.357-7.5 7.5s3.358 7.5 7.5 7.5z"/><path d="m167.105 263.5h32.325c4.142 0 7.5-3.357 7.5-7.5v-32.325c0-4.143-3.358-7.5-7.5-7.5h-32.325c-4.142 0-7.5 3.357-7.5 7.5v32.325c0 4.143 3.358 7.5 7.5 7.5zm7.5-32.325h17.325v17.325h-17.325z"/><path d="m367.12 367.7h-222.24c-9.705 0-17.6 7.896-17.6 17.6v109.1c0 9.704 7.896 17.6 17.6 17.6h163.65c4.142 0 7.5-3.357 7.5-7.5s-3.358-7.5-7.5-7.5h-163.65c-1.434 0-2.6-1.166-2.6-2.6v-109.1c0-1.434 1.167-2.6 2.6-2.6h222.24c1.434 0 2.6 1.166 2.6 2.6v109.1c0 1.434-1.167 2.6-2.6 2.6h-23.59c-4.142 0-7.5 3.357-7.5 7.5s3.358 7.5 7.5 7.5h23.59c9.705 0 17.6-7.896 17.6-17.6v-109.1c0-9.704-7.895-17.6-17.6-17.6z"/><path d="m167.105 479.675h141.423c4.142 0 7.5-3.357 7.5-7.5s-3.358-7.5-7.5-7.5h-141.423c-4.142 0-7.5 3.357-7.5 7.5s3.358 7.5 7.5 7.5z"/><path d="m352.395 439.85c0-4.143-3.358-7.5-7.5-7.5h-113.139c-4.142 0-7.5 3.357-7.5 7.5s3.358 7.5 7.5 7.5h113.139c4.142 0 7.5-3.358 7.5-7.5z"/><path d="m344.895 415.024c4.142 0 7.5-3.357 7.5-7.5s-3.358-7.5-7.5-7.5h-60.61c-4.142 0-7.5 3.357-7.5 7.5s3.358 7.5 7.5 7.5z"/><path d="m231.756 415.024h20.204c4.142 0 7.5-3.357 7.5-7.5s-3.358-7.5-7.5-7.5h-20.204c-4.142 0-7.5 3.357-7.5 7.5s3.358 7.5 7.5 7.5z"/><path d="m167.105 447.35h32.325c4.142 0 7.5-3.357 7.5-7.5v-32.325c0-4.143-3.358-7.5-7.5-7.5h-32.325c-4.142 0-7.5 3.357-7.5 7.5v32.325c0 4.142 3.358 7.5 7.5 7.5zm7.5-32.326h17.325v17.325h-17.325z"/><path d="m465.533 233.562v-141.208c0-15.275-12.428-27.703-27.704-27.703h-28.284c-4.142 0-7.5 3.357-7.5 7.5s3.358 7.5 7.5 7.5h28.284c7.005 0 12.704 5.698 12.704 12.703v141.209c-7.023 2.354-12.583 7.915-14.937 14.938h-50.876v-47.05c0-9.705-7.896-17.601-17.6-17.601h-222.24c-9.705 0-17.6 7.896-17.6 17.601v47.05h-50.875c-3.144-9.382-12.011-16.163-22.437-16.163-13.047 0-23.663 10.615-23.663 23.663 0 10.427 6.781 19.293 16.163 22.438v141.209c0 15.275 12.428 27.703 27.704 27.703h28.284c4.142 0 7.5-3.357 7.5-7.5s-3.358-7.5-7.5-7.5h-28.285c-7.005 0-12.704-5.698-12.704-12.703v-141.21c7.023-2.354 12.583-7.915 14.937-14.938h50.875v47.05c0 9.705 7.896 17.601 17.6 17.601h19.55c4.142 0 7.5-3.357 7.5-7.5s-3.358-7.5-7.5-7.5h-19.55c-1.434 0-2.6-1.167-2.6-2.601v-54.54c0-.003 0-.006 0-.01s0-.006 0-.01v-54.54c0-1.434 1.167-2.601 2.6-2.601h222.24c1.434 0 2.6 1.167 2.6 2.601v54.54.01s0 .006 0 .01v54.54c0 1.434-1.167 2.601-2.6 2.601h-167.689c-4.142 0-7.5 3.357-7.5 7.5s3.358 7.5 7.5 7.5h167.69c9.705 0 17.6-7.896 17.6-17.601v-47.05h50.875c3.144 9.382 12.011 16.163 22.437 16.163 13.047 0 23.663-10.615 23.663-23.663 0-10.427-6.781-19.293-16.162-22.438zm-411.566 31.101c-4.776 0-8.663-3.887-8.663-8.663s3.886-8.663 8.663-8.663 8.663 3.887 8.663 8.663-3.886 8.663-8.663 8.663zm404.066 0c-4.776 0-8.663-3.887-8.663-8.663s3.886-8.663 8.663-8.663 8.663 3.887 8.663 8.663-3.887 8.663-8.663 8.663z"/></g></g></svg>