<?xml version="1.0" encoding="UTF-8"?>
<svg xmlns="http://www.w3.org/2000/svg" id="icons" viewBox="0 0 60 60" width="512" height="512"><path d="M31.285,59.438a.5.5,0,0,1-.27-.921L38.033,54,28.75,59.361a.5.5,0,0,1-.518-.854l7.93-5.028-9.808,5.663a.5.5,0,0,1-.519-.855l11.641-7.395L23.935,58.709a.5.5,0,0,1-.521-.854L40.54,46.841,21.252,57.977a.5.5,0,0,1-.515-.857L33.755,49l-14.368,8.3a.5.5,0,0,1-.516-.856l16.5-10.342-17.9,10.337a.5.5,0,0,1-.517-.856l19.7-12.406L15.51,55.37A.5.5,0,0,1,15,54.513L32.751,43.47,13.905,54.35a.5.5,0,0,1-.509-.861l2.824-1.707L12.949,53.67a.5.5,0,0,1-.515-.857L35.2,38.524l-23.909,13.8a.5.5,0,0,1-.512-.859l14.677-9L10.167,51.3a.5.5,0,0,1-.51-.86L21.45,43.255,9.2,50.326a.5.5,0,0,1-.514-.856L32.11,34.853,7.881,48.842a.5.5,0,0,1-.515-.858L30.555,33.55,6.714,47.314a.5.5,0,0,1-.514-.857l22.7-14.1L5.675,45.768a.5.5,0,0,1-.508-.862l3.655-2.2-3.7,2.137a.5.5,0,0,1-.509-.861l5.625-3.395-5.66,3.268a.5.5,0,0,1-.512-.86l16.7-10.235L3.91,42.491a.5.5,0,0,1-.512-.858L21.805,30.311,3.279,41.006a.5.5,0,0,1-.511-.859L19.474,29.9,2.753,39.551a.5.5,0,0,1-.515-.858L24.6,24.77,2.2,37.7a.5.5,0,0,1-.513-.857l18.936-11.71L1.818,35.99a.5.5,0,0,1-.515-.856L23.474,21.253,1.5,33.939a.5.5,0,0,1-.513-.858L16.672,23.4,1.343,32.253a.5.5,0,0,1-.509-.86l3.675-2.228L1.3,31.021a.5.5,0,0,1-.516-.857L19.324,18.55l-18,10.393A.5.5,0,0,1,.8,28.088L20.1,15.87,1.535,26.588a.5.5,0,0,1-.518-.855L18.971,14.3l-17,9.812a.5.5,0,0,1-.513-.857l7.268-4.5L2.412,22.406a.5.5,0,0,1-.517-.855l11.643-7.366-10.39,6a.5.5,0,0,1-.512-.859l1.028-.634a.5.5,0,0,1-.39-.907l5.085-3.2-3.6,2.079a.5.5,0,0,1-.518-.854L7.88,13.5l-1.872,1.08a.5.5,0,0,1-.518-.854L7.149,12.67a.5.5,0,0,1-.277-.9l5.616-4.267a.511.511,0,0,1-.551-.236.5.5,0,0,1,.183-.683L18.712,2.78a.5.5,0,0,1,.553.831L13.772,7.784,25.73.882a.5.5,0,0,1,.518.854l-.022.015L28.145.644a.5.5,0,0,1,.517.854L25.025,3.806,30.552.615a.5.5,0,0,1,.516.856l-5.078,3.2L32.762.758a.5.5,0,0,1,.512.858l-.494.3L34.414.978a.5.5,0,0,1,.518.855L23.293,9.2,36.715,1.447a.5.5,0,0,1,.513.858L29.962,6.8l8.453-4.88a.5.5,0,0,1,.519.854L20.982,14.205l19.8-11.43a.5.5,0,0,1,.518.856l-19.3,12.223L42.925,3.77a.5.5,0,0,1,.515.856L24.9,16.24,44.749,4.778a.5.5,0,0,1,.509.861L41.574,7.871,45.785,5.44A.5.5,0,0,1,46.3,6.3L30.619,15.973,47.167,6.419a.5.5,0,0,1,.516.856L25.508,21.159,48.772,7.728a.5.5,0,0,1,.513.857L30.36,20.288,50.06,8.915a.5.5,0,0,1,.514.857L28.212,23.7,51.391,10.315a.5.5,0,0,1,.511.859L35.174,21.438,52.388,11.5a.5.5,0,0,1,.511.858L34.511,23.67,53.358,12.788a.5.5,0,0,1,.512.859L37.162,23.885l17.043-9.839a.5.5,0,0,1,.509.86l-5.625,3.4,5.7-3.293a.5.5,0,0,1,.508.861l-3.619,2.181,3.639-2.1a.5.5,0,0,1,.514.858l-22.709,14.1L56.142,17.623a.5.5,0,0,1,.514.857L33.474,32.911,56.88,19.4a.5.5,0,0,1,.515.857L33.956,34.88l23.555-13.6a.5.5,0,0,1,.51.86L46.236,29.322,57.872,22.6a.5.5,0,0,1,.512.86l-14.677,9L58.2,24.1a.5.5,0,0,1,.516.856L35.944,39.239,58.52,26.206a.5.5,0,0,1,.508.86L56.19,28.782l2.439-1.407a.5.5,0,0,1,.514.857L41.387,39.276l17.326-10a.5.5,0,0,1,.516.856l-19.695,12.4L58.649,31.5a.5.5,0,0,1,.516.857L42.67,42.693l15.771-9.1a.5.5,0,0,1,.515.856L45.935,42.572l12.16-7.02a.5.5,0,0,1,.52.853L41.492,47.418l15.9-9.182a.5.5,0,0,1,.518.855l-11.649,7.4,10.3-5.944a.5.5,0,0,1,.517.854L49.17,46.417l6.384-3.686a.5.5,0,0,1,.52.854l-7.028,4.521,5.12-2.956a.5.5,0,0,1,.522.852l-4.472,2.914,2.132-1.23a.5.5,0,0,1,.531.845l-3.3,2.252a.5.5,0,0,1,.331.926l-11.1,6.408a.5.5,0,0,1-.532-.846l2.944-2.005-6.6,3.808a.5.5,0,0,1-.522-.851l4.477-2.917L31.535,59.37A.5.5,0,0,1,31.285,59.438Z" fill="#e3c84c"/><path d="M29.581,55.459a.5.5,0,0,1-.272-.919l7.4-4.8-9.487,5.478a.5.5,0,0,1-.518-.855l6.634-4.211-8.194,4.731a.5.5,0,0,1-.514-.857l3.342-2.079-4.41,2.546a.5.5,0,0,1-.521-.853L36.47,45.016l-15.14,8.74a.5.5,0,0,1-.514-.858l7.078-4.391-8.028,4.634a.5.5,0,0,1-.512-.86l2.924-1.792-3.591,2.074a.5.5,0,0,1-.514-.858L29,44.97,17.248,51.753a.5.5,0,0,1-.516-.856l15.322-9.631L15.69,50.713a.5.5,0,0,1-.511-.859l7.965-4.893L14.607,49.89a.5.5,0,0,1-.51-.86l4.941-3.014-5.356,3.091a.5.5,0,0,1-.51-.859l4.875-2.972L12.812,48.3a.5.5,0,0,1-.516-.856L30.98,35.692,11.515,46.931A.5.5,0,0,1,11,46.072L23.927,38.1,10.578,45.8a.5.5,0,0,1-.515-.857L27.546,34.032,9.561,44.416a.5.5,0,0,1-.509-.86l1.186-.718L9,43.55a.5.5,0,0,1-.512-.859l12.122-7.459L8.3,42.343a.5.5,0,0,1-.513-.858L22,32.694,7.624,41a.5.5,0,0,1-.514-.857l14.7-9.108-14.8,8.544a.5.5,0,0,1-.518-.855l20.54-12.992L6.35,37.67a.5.5,0,0,1-.518-.856L25.457,24.408,5.849,35.729a.5.5,0,0,1-.515-.856l15.747-9.847L5.538,34a.5.5,0,0,1-.517-.855L21.633,22.682,5.341,32.088a.5.5,0,0,1-.52-.854L23.13,19.525,5.3,29.821a.5.5,0,0,1-.517-.855L17.937,20.68,5.406,27.914a.5.5,0,0,1-.516-.855l11.088-6.977-10.3,5.947a.5.5,0,0,1-.52-.853l12.117-7.74L6.163,23.85a.5.5,0,0,1-.516-.857l5.14-3.22L6.7,22.135a.5.5,0,0,1-.521-.853l8.866-5.727-7.4,4.27a.5.5,0,0,1-.534-.845l10.242-7.028-7.793,4.5a.5.5,0,0,1-.525-.85l2.122-1.4a.513.513,0,0,1-.492-.225.5.5,0,0,1,.129-.676l3.551-2.542a.478.478,0,0,1-.163-.171.5.5,0,0,1,.182-.683l6.091-3.516A.5.5,0,0,1,21,7.231l-1.3.928,5.412-3.125a.5.5,0,0,1,.525.851L24.019,6.948l3.952-2.281a.5.5,0,0,1,.533.845L18.263,12.54,31.855,4.692a.5.5,0,0,1,.522.853l-8.869,5.73L34.335,5.024a.5.5,0,0,1,.516.857L29.705,9.1,36.1,5.414a.5.5,0,0,1,.519.855L24.5,14.007,38.233,6.078a.5.5,0,0,1,.517.856L27.672,13.9l12.316-7.11a.5.5,0,0,1,.517.855L27.353,15.933,41.709,7.644a.5.5,0,0,1,.52.853L23.914,20.21,43.645,8.819a.5.5,0,0,1,.516.856L27.551,20.137,45.191,9.952a.5.5,0,0,1,.515.857L29.964,20.652l16.574-9.569a.5.5,0,0,1,.518.855l-19.63,12.41L47.96,12.492a.5.5,0,0,1,.518.856L27.942,26.337,49.28,14.018a.5.5,0,0,1,.514.857L35.065,24l15.142-8.741a.5.5,0,0,1,.513.857L36.512,24.9l14.525-8.385a.5.5,0,0,1,.512.858L39.428,24.831l12.308-7.106a.5.5,0,0,1,.509.86l-1.173.71,1.134-.654a.5.5,0,0,1,.515.856L35.244,30.406,52.9,20.212a.5.5,0,0,1,.513.858L40.471,29.059l12.939-7.47a.5.5,0,0,1,.517.855L35.238,34.2,53.949,23.4a.5.5,0,0,1,.51.859l-4.842,2.952,4.6-2.655a.5.5,0,0,1,.511.859L49.8,28.417l4.631-2.673a.5.5,0,0,1,.511.859l-7.977,4.9L54.6,27.1a.5.5,0,0,1,.515.855L39.8,37.58l14.908-8.607a.5.5,0,0,1,.515.857L44.4,36.565l10.3-5.945a.5.5,0,0,1,.512.859l-2.928,1.794,2.328-1.343a.5.5,0,0,1,.514.857l-7.075,4.391L54.408,33.5a.5.5,0,0,1,.521.853L41.492,42.98,53.937,35.8a.5.5,0,0,1,.513.857l-3.328,2.07,2.349-1.356a.5.5,0,0,1,.517.855l-6.634,4.212,5.387-3.111a.5.5,0,0,1,.523.852l-7.409,4.811,5.732-3.308a.5.5,0,0,1,.539.841l-8.847,6.263,5.706-3.294a.5.5,0,0,1,.54.84l-3.507,2.5a.491.491,0,0,1,.258.219.5.5,0,0,1-.182.682l-7.069,4.082a.5.5,0,0,1-.54-.84l1.973-1.407-6.033,3.483a.5.5,0,0,1-.539-.841l8.849-6.266-12.9,7.45A.494.494,0,0,1,29.581,55.459Z" fill="#fde05e"/><path d="M33.27,23.017a.5.5,0,0,1-.373-.835l.935-1.037L31.48,22.5a.5.5,0,0,1-.578-.811l2.835-2.461-6.388,3.688a.5.5,0,0,1-.549-.833L32.538,17.8l-7.225,4.171a.5.5,0,0,1-.542-.838l6.163-4.447-6.5,3.751a.5.5,0,0,1-.527-.849l.571-.378-.561.323a.5.5,0,0,1-.553-.83l5.907-4.5-6.318,3.649a.5.5,0,0,1-.559-.826l4.909-3.87-5.288,3.053a.5.5,0,0,1-.539-.841l.631-.446-.624.359a.5.5,0,0,1-.564-.821l2.131-1.721-2.269,1.31a.5.5,0,0,1-.654-.728L21.2,11.856l-.4.232a.5.5,0,1,1-.5-.865l2.45-1.415a.5.5,0,0,1,.654.727L22.331,12l5.775-3.334a.5.5,0,0,1,.565.821L26.54,11.211,31,8.637a.5.5,0,0,1,.539.841l-.63.445,1.9-1.1a.5.5,0,0,1,.559.825l-4.908,3.87,7.1-4.1a.5.5,0,0,1,.552.83l-5.908,4.5,7.751-4.475a.5.5,0,0,1,.526.85l-.572.379,1.057-.61a.5.5,0,0,1,.543.838l-6.162,4.446,6.063-3.5a.5.5,0,0,1,.549.833L34.218,17.8l3.528-2.036a.5.5,0,0,1,.578.81l-2.832,2.459.573-.331a.5.5,0,0,1,.622.768l-1.5,1.67a.5.5,0,0,1-.013.858l-1.651.953A.5.5,0,0,1,33.27,23.017Z" fill="#847949"/><path d="M17.827,47.56a.5.5,0,0,1-.343-.865L19.5,44.8l-2.809,1.621a.5.5,0,0,1-.561-.824l2.853-2.273L15.5,45.338a.5.5,0,0,1-.56-.824l4.744-3.765-5.487,3.167a.5.5,0,0,1-.669-.159.5.5,0,0,1,.123-.677l3.165-2.324L13.3,42.782a.5.5,0,0,1-.539-.841l1.772-1.255-1.911,1.1a.5.5,0,0,1-.56-.825l4.821-3.8-5.2,3a.5.5,0,0,1-.543-.838l2.8-2.022-2.852,1.646a.5.5,0,0,1-.546-.835l3.52-2.591-3.53,2.038a.5.5,0,0,1-.542-.839l1.818-1.3-1.665.961a.5.5,0,0,1-.557-.827l2-1.555L9.8,35.036a.5.5,0,0,1-.619-.769l2.044-2.239L9.454,33.049a.5.5,0,0,1-.657-.723l.62-.873H9.406a.5.5,0,0,1-.25-.932l1.662-.96a.5.5,0,0,1,.658.722l-.536.753,2.581-1.489a.5.5,0,0,1,.619.769L12.1,32.556l5.239-3.025a.5.5,0,0,1,.558.827L15.9,31.912l4.131-2.385a.5.5,0,0,1,.542.839l-1.814,1.3,2.631-1.519a.5.5,0,0,1,.546.835l-3.52,2.59,3.556-2.053a.5.5,0,0,1,.543.838L19.7,34.389l2.713-1.567a.5.5,0,0,1,.56.825l-4.82,3.8,5.215-3.01a.5.5,0,0,1,.539.84l-1.771,1.255,2.047-1.181a.5.5,0,0,1,.545.836l-3.166,2.325,3.491-2.015a.5.5,0,0,1,.56.824L20.873,41.08l3.418-1.974a.5.5,0,0,1,.562.825L22,42.2l.736-.425a.5.5,0,0,1,.593.8l-2.092,1.966a.5.5,0,0,1,.356.922l-3.513,2.028A.49.49,0,0,1,17.827,47.56Z" fill="#847949"/><path d="M40.715,47.813a.5.5,0,0,1-.325-.88l2.7-2.31-3.5,2.019a.5.5,0,0,1-.543-.838l1.516-1.1L39,45.614a.5.5,0,0,1-.558-.827l5.54-4.321-5.972,3.448a.5.5,0,0,1-.541-.839l4.416-3.16L37.238,42.6a.5.5,0,0,1-.529-.848l1.77-1.192-1.818,1.049a.5.5,0,0,1-.544-.836l6.41-4.656L35.743,40.03a.5.5,0,0,1-.528-.847l1.6-1.069-1.635.944a.5.5,0,0,1-.53-.847l1.292-.877-1.087.628a.5.5,0,0,1-.565-.821l4.4-3.571-1.47.849a.5.5,0,0,1-.569-.818l.891-.735a.492.492,0,0,1-.267-.167.5.5,0,0,1,.008-.646l.606-.7a.49.49,0,0,1-.208-.2.5.5,0,0,1,.183-.683l1.653-.954a.5.5,0,0,1,.628.762l-.149.17,1.607-.927a.5.5,0,0,1,.568.819l-.239.2,1.744-1.007a.5.5,0,0,1,.564.821l-4.406,3.573,7.583-4.378a.5.5,0,0,1,.53.846l-1.29.875L49.379,29.7a.5.5,0,0,1,.528.848l-1.6,1.072,2-1.158a.5.5,0,0,1,.544.837l-6.409,4.654,6.066-3.5a.5.5,0,0,1,.529.848l-1.769,1.191.988-.57a.5.5,0,0,1,.541.839l-4.42,3.163,3.326-1.92a.5.5,0,0,1,.558.827l-5.539,4.319,3.759-2.17a.5.5,0,0,1,.543.838l-1.62,1.172a.5.5,0,0,1,.472.859l-3.236,2.764a.5.5,0,0,1,.33.24.5.5,0,0,1-.183.682l-3.827,2.209A.493.493,0,0,1,40.715,47.813Z" fill="#847949"/><path d="M29.539,34.443a.5.5,0,0,1-.37-.836l2.189-2.416-3.77,2.177a.5.5,0,0,1-.594-.8l2.654-2.511-3.1,1.789a.5.5,0,0,1-.607-.784l2.476-2.511-2.073,1.2a.5.5,0,0,1-.6-.787l1.032-1.029a.494.494,0,0,1-.256-.218.5.5,0,0,1,.182-.683l2.379-1.373a.5.5,0,0,1,.6.787l-.531.529,1.966-1.135a.5.5,0,0,1,.607.783l-2.476,2.512,3.58-2.067a.5.5,0,0,1,.594.8l-2.653,2.511,2.853-1.648a.5.5,0,0,1,.62.769l-2.189,2.417,1.334-.77a.5.5,0,0,1,.5.865l-4.1,2.366A.489.489,0,0,1,29.539,34.443Z" fill="#847949"/><path d="M39.628,2.011A29.659,29.659,0,0,0,6.981,11.58C-9.8,32.76,9.542,64.706,36.2,58.923,64.835,52.808,67.373,11.466,39.628,2.011ZM28.688,58.374C-8.868,55.175-6.376,1.292,31.313,1.626,68.744,4.746,66.259,58.781,28.688,58.374Z" fill="#262626"/><path d="M22.146,17.665c1.158,2,2.2,6.073,5.246,5.307,4.542-1.672,6.574,2.794,9.2-3.351,1.1-2.052,2.448-4.034,3.426-6.129,1.856-6.427-13.19-5.037-16.321-4.056C18.312,11.121,19.946,13.818,22.146,17.665Zm16.863-4.087q-1.815,3.174-3.629,6.348c-1.128,1.972-2.2,1.518-4.588,1.578-4.622.537-5.766-.141-7.584-4.307-.542-.947-1.909-2.57-2.1-3.675C20,7.152,40.231,8.974,39.009,13.578Z" fill="#262626"/><path d="M22.226,30.309c-1.206-1.2-2.962-.867-4.514-.861-2.249.054-4.526-.069-6.761.078-6.565,1.532,1.41,13.4,3.825,15.783,4.205,4.655,6.35,2.238,8.448-2.469,1.442-2.282,4.471-5.483,1.364-7.779C23.465,33.682,23.39,31.464,22.226,30.309ZM24.259,39.1a23.034,23.034,0,0,1-2.254,3.867c-.5.857-1.055,2.524-1.818,3.119-4.087,3.323-14-14.113-9.093-15.643a88.06,88.06,0,0,1,8.941-.036c1.091.571,1.539,2.09,2.1,3.066C23.136,35.218,24.919,37.087,24.259,39.1Z" fill="#262626"/><path d="M39.024,46.745c4.538,6.427,16.27-14.956,10.809-17.2-1.558-.7-4.215-.191-5.821-.2-3.729-.193-6.164-.9-7.072,3.6-.609,1.395-2.31,2.3-2.673,3.744-.432,1.712.65,3,1.469,4.407ZM37.251,34.372c1.54-3.855,2.211-4.324,6.434-3.842,6.984-1.039,7.7,1.859,5.137,7.7C48.1,39.856,42.74,49.2,39.753,45.938c-1.564-2.49-3.178-5.106-4.486-7.7C35.049,36.682,36.569,35.532,37.251,34.372Z" fill="#262626"/><path d="M29.805,34.493c5.925-.094,6.447-8.746.32-8.984C24.273,25.639,23.783,34.124,29.805,34.493Zm.07-7.978c4.371.066,4.733,6.662.258,6.984C25.727,33.439,25.3,26.634,29.875,26.515Z" fill="#262626"/><path d="M38.086,5.728c-.593-.219-.711.97-.172,1.169,28.7,10.949,16.9,52.505-13.185,46.941C-3.632,46.948.939,6.4,30.036,5.6c.595-.016.531-1.214-.071-1.2C8.464,4.983-3.6,30.849,11.156,47.183c14.89,16.485,42.99,6.4,44.249-15.679A26,26,0,0,0,38.086,5.728Z" fill="#262626"/></svg>
