<svg enable-background="new 0 0 24 24" height="512" viewBox="0 0 24 24" width="512" xmlns="http://www.w3.org/2000/svg"><path d="m12 0c-6.617 0-12 5.383-12 12s5.383 12 12 12 12-5.383 12-12-5.383-12-12-12z" fill="#607d8b"/><path d="m18.424 13c.051-.327.076-.663.076-1 0-.335-.025-.667-.075-.992l1.653-1.297c.388-.305.495-.857.249-1.287l-1.067-1.848c-.248-.429-.781-.613-1.24-.428l-1.948.785c-.532-.429-1.109-.763-1.72-.995l-.296-2.08c-.07-.489-.495-.858-.99-.858h-2.132c-.495 0-.92.369-.99.859l-.296 2.081c-.612.235-1.195.573-1.712.993l-1.957-.785c-.459-.184-.991 0-1.239.428l-1.066 1.847c-.248.43-.14.984.251 1.288l1.651 1.289c-.051.327-.076.663-.076 1 0 .335.025.667.075.992l-1.653 1.297c-.388.305-.495.857-.249 1.287l1.066 1.848c.248.428.781.612 1.24.428l1.948-.785c.532.429 1.109.763 1.72.995l.296 2.08c.07.49.496.859.99.859h2.132c.495 0 .92-.369.99-.859l.296-2.081c.612-.235 1.195-.573 1.712-.993l1.957.785c.461.185.992.001 1.239-.428l1.066-1.848c.248-.43.14-.984-.251-1.288z" fill="#fafafa"/><circle cx="12" cy="12" fill="#607d8b" r="2.625"/><path d="m12 15c-1.654 0-3-1.346-3-3s1.346-3 3-3 3 1.346 3 3-1.346 3-3 3zm0-4.5c-.827 0-1.5.673-1.5 1.5s.673 1.5 1.5 1.5 1.5-.673 1.5-1.5-.673-1.5-1.5-1.5z"/><path d="m12 24c-6.617 0-12-5.383-12-12s5.383-12 12-12 12 5.383 12 12-5.383 12-12 12zm0-22.5c-5.79 0-10.5 4.71-10.5 10.5s4.71 10.5 10.5 10.5 10.5-4.71 10.5-10.5-4.71-10.5-10.5-10.5z"/><path d="m13.035 21h-2.07c-.61 0-1.137-.456-1.223-1.061l-.266-1.867c-.519-.212-1.011-.498-1.473-.852l-1.748.705c-.57.229-1.228.001-1.532-.53l-1.034-1.792c-.307-.529-.174-1.212.309-1.59l1.482-1.164c-.036-.278-.053-.562-.053-.849 0-.29.019-.576.055-.856l-1.482-1.156c-.482-.378-.615-1.062-.31-1.592l1.034-1.793c.305-.529.964-.755 1.529-.53l1.757.706c.451-.348.947-.635 1.466-.85l.266-1.868c.086-.605.612-1.061 1.223-1.061h2.07c.61 0 1.137.456 1.223 1.061l.266 1.866c.519.213 1.012.498 1.473.853l1.748-.705c.571-.23 1.229 0 1.532.53l1.034 1.792c.307.529.174 1.212-.309 1.59l-1.482 1.164c.036.278.054.562.054.849 0 .29-.019.576-.055.856l1.481 1.156c.482.377.615 1.062.31 1.591l-1.034 1.793c-.305.529-.964.756-1.529.53l-1.758-.706c-.45.348-.946.635-1.465.85l-.266 1.868c-.086.606-.612 1.062-1.223 1.062zm-1.841-1.5h1.611l.296-2.083c.04-.284.238-.52.511-.608.63-.205 1.232-.554 1.74-1.009.215-.192.52-.244.78-.138l1.958.786.805-1.396-1.649-1.287c-.183-.142-.289-.36-.289-.591v-.01c0-.051.005-.102.016-.152.066-.324.101-.664.101-1.013s-.034-.689-.101-1.013c-.058-.279.048-.566.271-.742l1.652-1.297-.805-1.396-1.948.785c-.264.104-.564.054-.776-.133-.533-.47-1.122-.811-1.752-1.013-.274-.088-.474-.324-.514-.609l-.295-2.081h-1.611l-.296 2.083c-.04.284-.238.52-.511.608-.631.205-1.233.554-1.741 1.009-.212.192-.517.246-.78.138l-1.958-.786-.805 1.395 1.649 1.287c.183.142.289.36.289.591 0 .051-.005.111-.016.162-.065.324-.099.664-.099 1.013s.034.689.101 1.013c.058.279-.048.566-.271.742l-1.652 1.297.805 1.396 1.948-.785c.263-.105.562-.055.776.133.533.471 1.123.812 1.752 1.013.274.088.474.324.514.609zm7.883-4.306h.01z"/></svg>