<svg id="Icons" height="512" viewBox="0 0 60 60" width="512" xmlns="http://www.w3.org/2000/svg"><path d="m10.664 59.47a.5.5 0 0 1 -.262-.926l16.846-10.344-19.404 11.2a.5.5 0 0 1 -.511-.859l17.275-10.557-19.777 11.416a.5.5 0 0 1 -.513-.857l26.182-16.183-28.22 16.289a.5.5 0 0 1 -.508-.861l9.628-5.788-9.843 5.678a.5.5 0 0 1 -.511-.86l23.205-14.175-22.971 13.262a.5.5 0 0 1 -.507-.861l2.362-1.413-1.856 1.069a.5.5 0 0 1 -.511-.858l26.89-16.526-26.379 15.232a.5.5 0 0 1 -.508-.861l9.288-5.587-8.78 5.069a.5.5 0 0 1 -.512-.859l28.18-17.363-27.669 15.979a.5.5 0 0 1 -.511-.859l27.457-16.892-26.946 15.556a.5.5 0 0 1 -.508-.86l15.811-9.562-15.3 8.835a.5.5 0 0 1 -.508-.861l18.127-10.991-17.623 10.172a.5.5 0 0 1 -.511-.859l24.822-15.221-24.311 14.035a.5.5 0 0 1 -.507-.861l7.945-4.784-7.438 4.294a.5.5 0 0 1 -.512-.857l23.081-14.276-22.57 13.029a.5.5 0 0 1 -.51-.86l15.458-9.47-14.948 8.63a.5.5 0 0 1 -.515-.857l21.517-13.513-21 12.125a.5.5 0 0 1 -.509-.861l2.817-1.709-2.311 1.332a.5.5 0 0 1 -.516-.855l17.074-10.776-16.558 9.559a.5.5 0 0 1 -.518-.855l15.389-9.791-14.872 8.585a.5.5 0 0 1 -.512-.858l3.874-2.39-3.362 1.939a.5.5 0 0 1 -.524-.851l14.1-9.249-13.576 7.838a.5.5 0 0 1 -.515-.856l2.7-1.688-2.182 1.26a.5.5 0 0 1 -.515-.856l.917-.575-.4.232a.5.5 0 0 1 -.528-.849l8.481-5.668-7.959 4.591a.5.5 0 0 1 -.519-.854l1.038-.666-.519.3a.5.5 0 0 1 -.528-.848l3.849-2.575-3.322 1.916a.5.5 0 0 1 -.525-.849l.472-.312a.5.5 0 0 1 -.5-.856l4.812-3.709-4.259 2.458a.5.5 0 0 1 -.579-.81l3.247-2.834-2.669 1.54a.5.5 0 0 1 -.6-.787l1.4-1.393-.8.462a.5.5 0 0 1 -.673-.7l.6-.959a.5.5 0 0 1 -.3-.231.5.5 0 0 1 .183-.684l1.182-.677a.5.5 0 0 1 .674.7l-.429.687 2.4-1.387a.5.5 0 0 1 .648.129.5.5 0 0 1 -.045.658l-1.406 1.392 3.782-2.179a.5.5 0 0 1 .579.809l-3.245 2.829 6.309-3.638a.5.5 0 0 1 .556.829l-4.815 3.707 7.864-4.536a.5.5 0 0 1 .525.849l-.423.28 1.963-1.129a.5.5 0 0 1 .529.848l-3.845 2.572 5.916-3.42a.5.5 0 0 1 .519.853l-1.032.662 2.628-1.516a.5.5 0 0 1 .528.848l-8.485 5.672 11.294-6.52a.5.5 0 0 1 .515.856l-.927.581 2.49-1.437a.5.5 0 0 1 .516.856l-2.682 1.678 4.396-2.54a.5.5 0 0 1 .524.85l-14.1 9.251 17.5-10.1a.5.5 0 0 1 .512.858l-3.868 2.388 5.625-3.247a.5.5 0 0 1 .519.854l-15.4 9.8 18.446-10.655a.5.5 0 0 1 .517.855l-17.062 10.768 20.134-11.624a.5.5 0 0 1 .51.86l-2.861 1.736 4.5-2.6a.5.5 0 0 1 .515.856l-21.5 13.5 24.87-14.353a.5.5 0 0 1 .511.859l-15.484 9.487 17.921-10.346a.5.5 0 0 1 .512.857l-23.064 14.267 26.2-15.125a.5.5 0 0 1 .508.861l-7.948 4.784 9.688-5.592a.5.5 0 0 1 .512.858l-24.845 15.233 25.268-14.587a.5.5 0 0 1 .509.861l-18.115 10.983 17.606-10.164a.5.5 0 0 1 .509.861l-15.786 9.545 15.277-8.819a.5.5 0 0 1 .511.858l-27.47 16.9 26.959-15.563a.5.5 0 0 1 .512.859l-28.172 17.358 27.66-15.97a.5.5 0 0 1 .508.862l-9.288 5.583 8.78-5.069a.5.5 0 0 1 .511.859l-26.89 16.524 26.379-15.229a.5.5 0 0 1 .507.861l-2.335 1.4 1.828-1.055a.5.5 0 0 1 .51.859l-23.215 14.179 22.705-13.108a.5.5 0 0 1 .508.861l-9.628 5.795 9.12-5.267a.5.5 0 0 1 .512.858l-26.176 16.184 25.664-14.816a.5.5 0 0 1 .51.859l-17.272 10.557 16.762-9.677a.5.5 0 0 1 .511.858l-16.859 10.353 16.348-9.438a.5.5 0 0 1 .515.857l-21.386 13.418 20.871-12.05a.5.5 0 0 1 .511.858l-11.437 7.04 10.926-6.307a.5.5 0 0 1 .516.855l-16.464 10.381 15.948-9.207a.5.5 0 0 1 .515.857l-12.482 7.843 11.967-6.908a.5.5 0 0 1 .521.853l-14.508 9.369 13.987-8.074a.5.5 0 0 1 .514.856l-4.683 2.927 4.169-2.406a.5.5 0 0 1 .525.849l-11.293 7.446 10.768-6.216a.5.5 0 0 1 .525.849l-8.24 5.44 7.715-4.454a.5.5 0 0 1 .536.842l-8.821 6.161 8.285-4.784a.5.5 0 0 1 .522.852l-.615.4.093-.052a.5.5 0 0 1 .536.842l-3.817 2.659 3.281-1.894a.5.5 0 0 1 .544.837l-2.955 2.143 2.411-1.391a.5.5 0 0 1 .559.825l-2.424 1.912 1.865-1.076a.5.5 0 0 1 .581.807l-1.409 1.247.828-.478a.5.5 0 0 1 .622.767l-.838.935a.5.5 0 0 1 .133.919l-2.048 1.183a.5.5 0 0 1 -.622-.767l.544-.607-2.42 1.4a.5.5 0 0 1 -.581-.806l1.408-1.246-3.557 2.046a.5.5 0 0 1 -.559-.825l2.424-1.912-4.742 2.737a.5.5 0 0 1 -.544-.837l2.96-2.141-5.168 2.978a.5.5 0 0 1 -.536-.842l3.817-2.658-6.065 3.5a.5.5 0 0 1 -.522-.851l.615-.4-2.17 1.251a.5.5 0 0 1 -.536-.842l8.821-6.158-12.13 7a.5.5 0 0 1 -.525-.849l8.238-5.438-10.89 6.287a.5.5 0 0 1 -.526-.849l11.3-7.448-14.376 8.297a.5.5 0 0 1 -.515-.856l4.692-2.932-6.563 3.788a.5.5 0 0 1 -.521-.852l14.5-9.367-17.697 10.219a.5.5 0 0 1 -.516-.856l12.486-7.844-15.075 8.7a.5.5 0 0 1 -.517-.855l16.468-10.381-19.467 11.236a.5.5 0 0 1 -.511-.858l11.43-7.036-13.673 7.894a.5.5 0 0 1 -.516-.856l21.389-13.417-24.727 14.273a.5.5 0 0 1 -.25.07z" fill="#e1e9f4"/><path d="m1.04 9.5a.5.5 0 0 1 -.281-.913l.53-.361h-.009a.5.5 0 0 1 -.551-.826l2.548-1.93-2 1.152a.5.5 0 0 1 -.57-.816l1.731-1.446-1.158.669a.5.5 0 0 1 -.651-.729l1.2-1.611a.5.5 0 0 1 -.467-.889l2.049-1.18a.5.5 0 0 1 .651.731l-1.192 1.606 4.087-2.357a.5.5 0 0 1 .57.816l-1.727 1.443 3.915-2.259a.5.5 0 0 1 .552.831l-2.55 1.929 4.783-2.76a.5.5 0 0 1 .531.845l-.529.361 2.098-1.206a.5.5 0 0 1 .541.839l-2.791 2 4.907-2.839a.5.5 0 0 1 .537.841l-2.028 1.42 3.921-2.261a.5.5 0 0 1 .537.841l-2.018 1.412 3.907-2.253a.5.5 0 0 1 .533.844l-1.162.8 2.849-1.644a.5.5 0 0 1 .544.837l-3.256 2.363 5.55-3.2a.5.5 0 0 1 .552.832l-4.075 3.074 6.77-3.906a.5.5 0 0 1 .533.844l-1.151.79 2.836-1.634a.5.5 0 0 1 .548.835l-3.69 2.73 6.177-3.565a.5.5 0 0 1 .534.843l-1.473 1.02 3.229-1.863a.5.5 0 0 1 .559.826l-4.61 3.619 7.703-4.445a.5.5 0 0 1 .545.836l-3.413 2.5 5.776-3.336a.5.5 0 0 1 .548.834l-3.819 2.843 6.375-3.677a.5.5 0 0 1 .535.843l-1.594 1.105 3.378-1.948a.5.5 0 0 1 .531.846l-.038.026 1.511-.872a.5.5 0 0 1 .556.828l-4.393 3.389 7.31-4.217a.5.5 0 0 1 .533.844l-1.1.753 2.223-1.282a.5.5 0 0 1 .561.824l-4.3 3.417 5.062-2.924a.5.5 0 0 1 .568.82l-2.968 2.429 2.721-1.57a.5.5 0 0 1 .59.8l-1.73 1.6 1.15-.665a.5.5 0 0 1 .614.777l-.445.477a.487.487 0 0 1 .418.113.5.5 0 0 1 .139.562l-.231.588a.494.494 0 0 1 .207.2.5.5 0 0 1 -.183.683l-.631.364a.5.5 0 0 1 -.715-.616l.1-.25-1.504.856a.5.5 0 0 1 -.613-.776l.378-.4-2.041 1.176a.5.5 0 0 1 -.59-.8l1.728-1.6-4.162 2.407a.5.5 0 0 1 -.567-.819l2.967-2.431-5.632 3.251a.5.5 0 0 1 -.561-.824l4.3-3.417-7.346 4.243a.5.5 0 0 1 -.533-.845l1.1-.753-2.772 1.6a.5.5 0 0 1 -.555-.828l4.389-3.393-7.313 4.222a.5.5 0 0 1 -.531-.847l.034-.022-1.508.87a.5.5 0 0 1 -.535-.844l1.594-1.106-3.38 1.951a.5.5 0 0 1 -.549-.834l3.818-2.846-6.377 3.682a.5.5 0 0 1 -.545-.836l3.412-2.5-5.777 3.338a.5.5 0 0 1 -.559-.826l4.61-3.62-7.706 4.448a.5.5 0 0 1 -.534-.844l1.477-1.023-3.236 1.868a.5.5 0 0 1 -.548-.835l3.69-2.732-6.179 3.568a.5.5 0 0 1 -.534-.845l1.146-.788-2.832 1.635a.5.5 0 0 1 -.552-.832l4.076-3.078-6.774 3.911a.5.5 0 0 1 -.544-.837l3.254-2.365-5.551 3.2a.5.5 0 0 1 -.533-.845l1.163-.8-2.852 1.65a.5.5 0 0 1 -.537-.842l2.022-1.414-3.913 2.257a.5.5 0 0 1 -.537-.842l2.023-1.418-3.918 2.262a.5.5 0 0 1 -.541-.839l2.794-2-4.918 2.84a.494.494 0 0 1 -.25.067z" fill="#4161a0"/><path d="m25.2 33.429a.5.5 0 0 1 -.385-.819l1.231-1.494-1.946 1.119a.5.5 0 0 1 -.606-.784l2.371-2.391-3.136 1.809a.5.5 0 0 1 -.575-.812l2.358-2.014-2.592 1.5a.5.5 0 0 1 -.549-.833l1.1-.821a.5.5 0 0 1 -.271-.871l2.326-2.056-1.257.726a.5.5 0 0 1 -.6-.788l2.181-2.157-1.8 1.04a.5.5 0 0 1 -.575-.812l.544-.466-.385.222a.5.5 0 0 1 -.62-.769l1.87-2.061-2.33 1.344a.5.5 0 0 1 -.659-.719l1.174-1.672a.5.5 0 0 1 -.388-.913l1.83-1.057a.5.5 0 0 1 .659.72l-1.155 1.643 3.135-1.813a.5.5 0 0 1 .621.768l-1.871 2.062 2.288-1.322a.5.5 0 0 1 .576.813l-.543.465.493-.284a.5.5 0 0 1 .6.788l-2.182 2.158 2.21-1.278a.5.5 0 0 1 .581.807l-2.323 2.058 2.06-1.19a.5.5 0 0 1 .549.833l-.434.325a.5.5 0 0 1 .526.838l-2.358 2.013 1.659-.957a.5.5 0 0 1 .605.784l-2.371 2.389 1.1-.634a.5.5 0 0 1 .635.751l-1.661 2.016a.477.477 0 0 1 .2.19.5.5 0 0 1 -.182.683l-1.477.852a.49.49 0 0 1 -.251.071z" fill="#7ade8a"/><path d="m34.011 17.2a.5.5 0 0 1 -.405-.794l.914-1.255-1.193.689a.5.5 0 0 1 -.64-.745l.5-.622a.5.5 0 0 1 -.119-.915l1.658-.956a.5.5 0 0 1 .64.745l-.242.3.941-.543a.5.5 0 0 1 .655.727l-.92 1.256.917-.529a.5.5 0 0 1 .5.865l-2.959 1.708a.489.489 0 0 1 -.247.069z" fill="#4161a0"/><path d="m35.028 25.468a.5.5 0 0 1 -.428-.768l.693-1.115-1.665.961a.5.5 0 0 1 -.7-.662l.811-1.573-.183.106a.5.5 0 0 1 -.5-.865l1.658-.956a.491.491 0 0 1 .594.071.5.5 0 0 1 .1.591l-.811 1.57 1.92-1.107a.5.5 0 0 1 .675.7l-.7 1.125a.5.5 0 0 1 .433.9l-1.656.956a.49.49 0 0 1 -.241.066z" fill="#4161a0"/><path d="m35.028 33.468a.5.5 0 0 1 -.426-.76l.715-1.177-1.707.986a.5.5 0 0 1 -.692-.666l.8-1.519-.156.089a.5.5 0 0 1 -.5-.865l1.658-.956a.5.5 0 0 1 .692.666l-.8 1.517 1.9-1.1a.5.5 0 0 1 .676.692l-.716 1.18a.5.5 0 0 1 .463.884l-1.656.956a.49.49 0 0 1 -.251.073z" fill="#4161a0"/><path d="m34.99 54.469a.5.5 0 0 1 -.385-.819l1.207-1.458-1.532.884a.5.5 0 0 1 -.611-.778l1.517-1.584-.906.522a.5.5 0 0 1 -.612-.776l1.564-1.648-.952.548a.5.5 0 0 1 -.586-.8l.429-.39a.505.505 0 0 1 -.43-.121.5.5 0 0 1 -.117-.578l.584-1.275a.5.5 0 0 1 -.327-.926l1.161-.67a.5.5 0 0 1 .7.64l-.559 1.222 2.429-1.4a.5.5 0 0 1 .586.8l-.355.324a.5.5 0 0 1 .533.813l-1.558 1.646.95-.549a.5.5 0 0 1 .611.778l-1.518 1.586.907-.523a.5.5 0 0 1 .634.751l-1.2 1.457.571-.33a.5.5 0 0 1 .5.866l-2.985 1.719a.49.49 0 0 1 -.25.069z" fill="#f96771"/><path d="m44.441 54.47a.5.5 0 0 1 -.429-.755l.552-.934-2.1 1.213a.5.5 0 0 1 -.589-.8l.425-.394-.021.011a.5.5 0 0 1 -.625-.762l1.921-2.181-1.3.748a.5.5 0 0 1 -.6-.787l1.225-1.217-.621.359a.5.5 0 0 1 -.579-.809l.336-.294a.446.446 0 0 1 -.4-.194.5.5 0 0 1 .04-.657l1.311-1.324-.706.408a.5.5 0 0 1 -.616-.774l1.664-1.786-1.048.605a.5.5 0 0 1 -.617-.772l1.1-1.192-.483.278a.5.5 0 0 1 -.677-.692l.355-.583a.5.5 0 0 1 -.308-.235.5.5 0 0 1 .183-.682l1.161-.67a.5.5 0 0 1 .678.692l-.2.327 1.637-.945a.5.5 0 0 1 .618.771l-1.1 1.194 1.093-.631a.5.5 0 0 1 .616.773l-1.663 1.785 1.047-.6a.5.5 0 0 1 .605.784l-1.311 1.323.706-.407a.5.5 0 0 1 .579.809l-.336.294a.4.4 0 0 1 .4.2.5.5 0 0 1 -.045.658l-1.219 1.211.621-.358a.5.5 0 0 1 .625.762l-1.921 2.181 1.3-.748a.5.5 0 0 1 .589.8l-.477.438a.5.5 0 0 1 .567.735l-.571.964a.5.5 0 0 1 .381.915l-1.518.876a.49.49 0 0 1 -.255.069z" fill="#7ade8a"/><path d="m51.71 54.47a.5.5 0 0 1 -.415-.78l1.055-1.568-2.07 1.2a.5.5 0 0 1 -.606-.783l1.352-1.374-.746.431a.5.5 0 0 1 -.6-.789l1.149-1.132-.549.316a.5.5 0 0 1 -.626-.762l1.931-2.2-1.3.754a.5.5 0 0 1 -.6-.786l1.249-1.248-.646.372a.5.5 0 0 1 -.593-.8l.515-.484a.5.5 0 0 1 -.615-.7l.486-.938a.5.5 0 0 1 -.24-.932l1.161-.67a.5.5 0 0 1 .693.663l-.424.818 2.132-1.23a.5.5 0 0 1 .592.8l-.489.46.222-.127a.5.5 0 0 1 .6.786l-1.249 1.248.646-.372a.5.5 0 0 1 .626.762l-1.931 2.2 1.3-.753a.5.5 0 0 1 .6.789l-1.149 1.132.549-.317a.5.5 0 0 1 .606.783l-1.352 1.374.746-.43a.494.494 0 0 1 .615.092.5.5 0 0 1 .05.62l-1.055 1.562.39-.225a.5.5 0 0 1 .5.866l-2.26 1.3a.49.49 0 0 1 -.25.072z" fill="#25a9fe"/><path d="m12.6 21.177a.5.5 0 0 1 -.3-.9l2.7-2.066-4.111 2.373a.5.5 0 0 1 -.542-.838l1.282-.924-1.635.944a.5.5 0 0 1 -.586-.8l3.492-3.166-3.7 2.136a.5.5 0 0 1 -.585-.8l.775-.7-.1.057a.5.5 0 1 1 -.5-.865l4.21-2.428a.5.5 0 0 1 .585.8l-.775.7 3.645-2.1a.5.5 0 0 1 .586.8l-3.487 3.16 6.183-3.57a.5.5 0 0 1 .542.838l-1.286.927 2.161-1.255a.5.5 0 0 1 .554.829l-2.7 2.069 3.642-2.1a.5.5 0 0 1 .6.791l-1.632 1.584 2.412-1.393a.5.5 0 0 1 .6.79l-1.363 1.333 1.435-.828a.5.5 0 0 1 .587.8l-2.871 2.625a.5.5 0 0 1 -.246.5l-.864.5a.5.5 0 0 1 -.587-.8l.484-.441-.878.506a.5.5 0 0 1 -.6-.79l1.364-1.334-2.468 1.424a.5.5 0 0 1 -.6-.791l1.632-1.583-6.8 3.927a.5.5 0 0 1 -.255.059z" fill="#f9c32f"/><path d="m17.031 27.466a.5.5 0 0 1 -.4-.8l.5-.679-1.331.769a.5.5 0 0 1 -.643-.742l1.577-2-1.43.826a.5.5 0 0 1 -.642-.743l1.738-2.197-.839.485a.5.5 0 0 1 -.659-.722l1.444-2.035-.4.233a.5.5 0 0 1 -.674-.695l.6-.972a.5.5 0 0 1 -.3-.232.5.5 0 0 1 .183-.683l1.173-.676a.494.494 0 0 1 .609.084.5.5 0 0 1 .066.611l-.435.7.666-.385a.5.5 0 0 1 .658.722l-1.444 2.036 1.133-.653a.5.5 0 0 1 .641.743l-1.74 2.193 1.405-.811a.5.5 0 0 1 .643.742l-1.578 2 1.151-.664a.5.5 0 0 1 .653.729l-.626.85a.5.5 0 0 1 .215.931l-1.658.957a.49.49 0 0 1 -.256.078z" fill="#4161a0"/><path d="m7.687 33.033a.5.5 0 0 1 -.346-.86l1.377-1.327-1.625.937a.5.5 0 0 1 -.581-.807l.856-.757-.873.5a.5.5 0 0 1 -.606-.784l2.155-2.185-2.224 1.287a.5.5 0 0 1 -.6-.792l2.791-2.7-2.624 1.519a.5.5 0 0 1 -.552-.831l.794-.6-.344.2a.5.5 0 0 1 -.59-.8l3.137-2.9-2.4 1.388a.5.5 0 0 1 -.609-.782l2.359-2.423-1.021.584a.493.493 0 0 1 -.624-.1.5.5 0 0 1 -.026-.631l2.017-2.7c-.009-.013-.017-.026-.025-.04a.5.5 0 0 1 .183-.683l.759-.438a.5.5 0 0 1 .651.731l-1.332 1.78 2.036-1.175a.5.5 0 0 1 .608.781l-2.356 2.424 3.152-1.82a.5.5 0 0 1 .59.8l-3.137 2.9 3.419-1.973a.5.5 0 0 1 .552.831l-1.316 1a.5.5 0 0 1 .321.858l-2.791 2.7 1.9-1.1a.5.5 0 0 1 .607.783l-2.149 2.18 1.982-1.144a.5.5 0 0 1 .581.808l-.86.759.858-.494a.5.5 0 0 1 .6.792l-1.376 1.328.567-.328a.5.5 0 1 1 .5.866l-4.115 2.371a.489.489 0 0 1 -.25.067z" fill="#f96771"/><g fill="#262626"><path d="m59.724 22.639c-1.089-22.539 6.429-22.839-19.191-22.03h-29.913c-4.52-.177-11.629-.888-10.344 5.82v27.008c1.186 5.443-3.3 25.724 3.436 25.955h48.149c6.325.761 8.8-1.4 7.863-7.865zm-58-18.691c-1.883-5.048 27.422-1.612 31.851-2.557 7.258 0 14.533-.151 21.789 0 3.994.2 2.663 4.665 2.912 7.32h-56.569c-.021-1.588-.045-3.181.017-4.763zm56.552 42.27c-.851 3.757 2.61 12.738-3.426 12.39h-50.563c-3.251-.175-2.563-4.447-2.563-6.654-.01-14.222.021-28.444-.011-42.666h56.563z"/><path d="m17.25 12.463c-18.707-.341-14.077 30.775-4.407 17.442.469-.754.163-1.321-.243-2a5.515 5.515 0 0 1 2.256-7.926c-3.222 10.233 7.321 10.187 4.353.141 3.686 1.746 3.5 6.034 1.7 9.044 8.244 15.336 15.791-15.98-3.659-16.701zm-6.87 11.416c-.858 2.173 1.315 4.091.914 6.01-.826.833-1.708 1.774-2.553 2.553-4.1-3.5-3.829-11.059-.274-15.009l3.43 3.431a6.432 6.432 0 0 0 -1.517 3.015zm7.091 2.507c-2.427.338-1.633-2.88-1.475-4.334.144-1.093.737-6.889 1.489-3.216-.002 2.306 1.895 5.794-.014 7.55zm1.529-7.651c.166-3.122-4.1-2.882-3.967.081a7.318 7.318 0 0 0 -2.133 1.106l-3.481-3.476a10.987 10.987 0 0 1 15.135.388l-3.165 3.172a6.759 6.759 0 0 0 -2.389-1.271zm8.385 10.831c-1.426 3.862-2.376 2.734-4.581.254-.448-.516-.389-.846-.053-1.51a6.351 6.351 0 0 0 -.739-7.707q1.573-1.577 3.146-3.154a11.239 11.239 0 0 1 2.228 12.117z"/><path d="m32.81 21.71c-2.63 3.82 4.81 5.19 4.91 1.1-.06-2.51-3.57-2.79-4.91-1.1zm3.15 2.45a1.24 1.24 0 0 1 -.33.35c-1.56.62-2.51-2.04-1.42-2.89a1.307 1.307 0 0 1 .3-.2c1.36-.26 2.26 1.71 1.45 2.74z"/><path d="m32.81 13.8c-2.63 3.82 4.81 5.19 4.91 1.1-.06-2.513-3.57-2.793-4.91-1.1zm3.15 2.45a1.24 1.24 0 0 1 -.33.35c-1.56.62-2.51-2.04-1.42-2.89a1.307 1.307 0 0 1 .3-.2c1.36-.263 2.26 1.707 1.45 2.737z"/><path d="m32.81 29.8c-2.63 3.82 4.81 5.19 4.91 1.1-.06-2.513-3.57-2.793-4.91-1.1zm3.15 2.45a1.24 1.24 0 0 1 -.33.35c-1.56.62-2.51-2.04-1.42-2.89a1.307 1.307 0 0 1 .3-.2c1.36-.263 2.26 1.707 1.45 2.737z"/><path d="m38.724 46.752c.652-2.819-3.795-2.69-5.177-1.385-.343 2.638-.826 6.33.242 8.757 6.389 1.898 4.789-3.124 4.935-7.372zm-3.434 6.848c-1.234-1.172-.418-6.2-.465-8.1a.787.787 0 0 1 -.11-.1h.166c.03-.092.066-.093.09 0 1-.012 2.538-.313 2.3 1.19-.14 2.3.283 4.786-.166 7.007-.597-.023-1.22.064-1.815.003z"/><path d="m34.971 45.405c-.03 0-.06 0-.09 0a.5.5 0 0 1 -.056.1c.145.095.167-.013.146-.1z"/><path d="m43.46 39.6c-4.3.043-1.4 10.338-2.186 13.537.174 2.064 5.444 1.752 5.45-.343-.017-3.986.028-7.976 0-11.958-.099-1.567-2.176-1.247-3.264-1.236zm-.687.8c-.019.009-.016.006 0 0zm-.049 12.367c.139-4.1-.292-8.346.157-12.376.841.156 2.265-.472 2.4.8-.134 4.1.287 8.391-.17 12.417-.89.042-2.311.303-2.387-.836z"/><path d="m51.426 41.614c-4.2.3-1.4 8.525-2.151 11.578.232 1.988 5.435 1.678 5.449-.388-.838-3.404 2.542-12.478-3.298-11.19zm-.7 11.192c.056-3.432-.126-7.057.068-10.408a7.708 7.708 0 0 1 .859-.012c3.233-.6 1.009 7.048 1.625 9.177 0 .127.133 1.963-.156 2.051-.847-.129-2.281.454-2.398-.808z"/><path d="m4.581 5.486c.625.132 2.7.16 1.978-.9-.616-.364-3.137-.072-1.978.9z"/><path d="m10.4 5.286c.322.1 1.829-.367 1.069-.572-1.008-.251-3.529.635-1.069.572z"/><path d="m14.946 5.568c.64.088 2.33-.034 1.607-1.006-.841-.653-3.553.464-1.607 1.006z"/><path d="m48.7 5.341c2.254-.244 4.9.525 6.964-.366.514-.681-9.388-.475-6.964.366z"/><path d="m40.938 15.537c1.463-.389 16.162 1.045 13.125-1.074-1.463.389-16.163-1.045-13.125 1.074z"/><path d="m40.53 23.3c4.632-.23 9.507.463 14.025-.274-2.609-.942-7.948.011-11.449-.319-.606.019-3.234-.194-2.576.593z"/><path d="m53.727 31.442c5.1-1.332-13.062-1.219-13.406-.476 3.489 1.345 9.202.034 13.406.476z"/><path d="m24.981 39.368c12.719-.948-16.181-.778-18.687-.735-4.258 1.567 16.95.398 18.687.735z"/><path d="m5.737 44.481h22c.635 0 1.5-.962.526-.962h-22c-.635 0-1.502.962-.526.962z"/><path d="m8.995 48.54c-13.1 1.193 16.367.967 18.736.919 4.469-1.921-17.006-.518-18.736-.919z"/><path d="m28.263 53.518h-22c-.637 0-1.5.964-.526.964h22c.637 0 1.502-.964.526-.964z"/></g></svg>