<svg id="Capa_1" enable-background="new 0 0 512 512" height="512" viewBox="0 0 512 512" width="512" xmlns="http://www.w3.org/2000/svg"><g><g><path d="m498.021 255.5c0 2.341 6.446 5.175 6.382 7.5-1.322 47.811-16.149 92.247-40.803 129.63-44.446 67.396-118.298 103.561-205.069 103.561-137.243 0-241.021-107.055-241.021-244.298 0-65.577 15.39-121.114 56.89-165.524 43.659-46.719 105.136-76.577 173.6-78.743 2.656-.084 4.823 5.246 7.5 5.246 2.341 0 5.175-5.34 7.5-5.276 63.159 1.747 120.429 27.06 163.331 67.462 1.353 1.274-2.656 10.008-1.331 11.311 2.24 2.206 9.786-2.99 11.941-.701 40.188 42.675 65.447 99.568 67.432 162.331.085 2.657-6.352 4.824-6.352 7.501z" fill="#dcf2f6"/><path d="m463.6 392.63c-43.251 65.582-116.732 109.454-200.6 111.773-2.326.064-6.851-12.68-9.192-12.68-2.677 0-3.152 12.734-5.809 12.65-131.214-4.15-236.769-110.029-240.402-241.373-.064-2.326 13.233-8.765 13.233-11.106 0-2.677-13.287-1.238-13.203-3.894 1.974-62.423 26.977-119.033 66.773-161.63-25.85 39.21-40.9 86.16-40.9 136.63 0 137.24 111.26 248.5 248.5 248.5 71.66 0 136.24-30.34 181.6-78.87z" fill="#bae6ef"/><g fill="#dd646e"><path d="m206.5 98.5c0 3.204-.457 6.301-1.308 9.23-3.993 13.733-15.511 18.504-30.532 18.504-18.225 0-27.702-11.264-27.702-29.489 0-14.484 2.874-25.033 15.853-29.475 3.353-1.147 6.949-1.77 10.69-1.77 18.224 0 32.999 14.775 32.999 33z"/><path d="m170 392.5c0 1.931-.192 3.817-.558 5.64-2.618 13.039-14.133 16.86-27.942 16.86-15.74 0-23.053-7.579-23.053-23.319 0-13.346 3.726-23.73 16.111-26.829 2.222-.556 4.548-.851 6.942-.851 15.74-.001 28.5 12.759 28.5 28.499z"/><path d="m444.5 336c0 1.931-.192 3.817-.558 5.64-2.618 13.038-12.064 16.509-25.873 16.509-15.74 0-26.431-8.771-26.431-24.511 0-13.346 5.035-22.187 17.42-25.287 2.222-.556 4.548-.851 6.942-.851 15.74 0 28.5 12.76 28.5 28.5z"/></g><path d="m205.19 107.73c-3.99 13.73-16.66 23.77-31.69 23.77-18.23 0-33-14.77-33-33 0-14.49 9.33-26.79 22.31-31.23-.85 2.93-1.31 6.03-1.31 9.23 0 18.23 14.77 33 33 33 3.74 0 7.34-.62 10.69-1.77z" fill="#da4955"/><path d="m169.44 398.14c-2.62 13.04-14.13 22.86-27.94 22.86-15.74 0-28.5-12.76-28.5-28.5 0-13.35 9.17-24.55 21.56-27.64-.37 1.82-.56 3.71-.56 5.64 0 15.74 12.76 28.5 28.5 28.5 2.39 0 4.72-.3 6.94-.86z" fill="#da4955"/><path d="m443.94 341.64c-2.62 13.04-14.13 22.86-27.94 22.86-15.74 0-28.5-12.76-28.5-28.5 0-13.35 9.17-24.55 21.56-27.64-.37 1.82-.56 3.71-.56 5.64 0 15.74 12.76 28.5 28.5 28.5 2.39 0 4.72-.3 6.94-.86z" fill="#da4955"/><path d="m258.362 286.83c-21.229 0-35.915-12.133-35.915-33.362 0-18.145 7.671-30.867 24.594-34.916 2.876-.688 5.876-1.052 8.959-1.052 21.229 0 38.5 17.271 38.5 38.5 0 2.197-.185 4.352-.54 6.45-3.078 18.169-16.567 24.38-35.598 24.38z" fill="#dd646e"/><path d="m293.96 262.45c-3.08 18.17-18.93 32.05-37.96 32.05-21.23 0-38.5-17.27-38.5-38.5 0-18.15 12.62-33.4 29.54-37.45-.36 2.1-.54 4.25-.54 6.45 0 21.23 17.27 38.5 38.5 38.5 3.08 0 6.08-.36 8.96-1.05z" fill="#da4955"/></g><path d="m512 255.5c0-.054-.007-.106-.008-.159-.171-68.133-26.776-132.165-74.972-180.361-48.353-48.351-112.64-74.98-181.02-74.98-.135 0-.27.005-.405.005-.032-.001-.063-.005-.095-.005-.052 0-.102.007-.154.008-33.188.082-65.466 6.418-95.947 18.848-3.835 1.563-5.677 5.94-4.113 9.776s5.942 5.68 9.777 4.112c26.421-10.774 54.285-16.671 82.937-17.599v55.032c-13.754.586-27.346 2.684-40.563 6.261-7.233-11.088-19.739-18.438-33.937-18.438-22.332 0-40.5 18.168-40.5 40.5 0 5.467 1.095 10.681 3.067 15.443-40.02 33.789-63.675 81.983-65.879 134.057h-55.054c2.763-82.312 48.012-158.497 119.486-200.249 3.576-2.089 4.782-6.682 2.693-10.259-2.088-3.575-6.682-4.782-10.259-2.692-37.957 22.172-69.777 53.935-92.02 91.853-22.819 38.9-34.923 83.407-35.029 128.748 0 .033-.005.065-.005.099 0 .024.003.047.004.071-.001.143-.004.286-.004.429 0 68.38 26.628 132.668 74.98 181.02 48.196 48.196 112.227 74.802 180.361 74.972.053.001.105.008.159.008.033 0 .064-.004.097-.005.135 0 .268.005.403.005 77.27 0 149.622-34.384 198.504-94.334 2.618-3.21 2.137-7.935-1.073-10.552-3.21-2.619-7.934-2.138-10.552 1.073-44.542 54.627-109.781 86.704-179.879 88.71v-55.047c54.859-2.091 106.417-28.645 140.158-72.227 3.992 1.53 8.319 2.377 12.842 2.377 19.851 0 36-16.149 36-36 0-12.764-6.683-23.989-16.727-30.383 3.843-13.868 6.058-28.152 6.596-42.617h55.022c-1.198 41.495-13.027 81.927-34.406 117.348-2.141 3.547-1.001 8.157 2.545 10.297 1.212.731 2.549 1.08 3.868 1.08 2.541 0 5.02-1.292 6.428-3.625 23.993-39.75 36.674-85.43 36.674-132.1 0-.135-.005-.268-.005-.403.001-.033.005-.064.005-.097zm-77.803-52.872c-1.19-3.968-5.373-6.22-9.339-5.028-3.967 1.19-6.219 5.371-5.028 9.339 3.996 13.319 6.315 27.098 6.962 41.062h-55.073c-1.79-26.152-12.285-49.948-28.605-68.507l38.938-38.938c9.32 10.176 17.508 21.558 24.284 34.015 1.36 2.5 3.936 3.918 6.595 3.917 1.21 0 2.438-.293 3.577-.912 3.639-1.979 4.984-6.534 3.005-10.173-7.474-13.741-16.531-26.274-26.848-37.46l38.88-38.88c38.859 41.333 63.321 96.339 65.309 156.937h-55.03c-.659-15.427-3.211-30.654-7.627-45.372zm-292.697 168.872c11.58 0 21 9.421 21 21s-9.42 21-21 21-21-9.421-21-21 9.42-21 21-21zm0-15c-7.148 0-13.81 2.102-19.417 5.709-22.51-28.338-35.448-63.092-36.933-99.209h55.067c1.039 17.105 5.868 33.861 14.129 48.843 2 3.628 6.562 4.947 10.189 2.946 3.627-2 4.947-6.562 2.947-10.188-7.042-12.771-11.212-27.027-12.23-41.601h55.279c2.98 19.435 18.173 34.889 37.468 38.289v55.372c-22.197-1.76-43.202-10.788-59.843-25.906-3.065-2.784-7.809-2.556-10.594.509-2.785 3.066-2.558 7.81.508 10.595 19.411 17.633 43.99 28.078 69.929 29.866v55.066c-25.683-1.203-50.745-8.174-73.29-20.401 1.795-4.276 2.79-8.968 2.79-13.889.001-19.852-16.148-36.001-35.999-36.001zm240.561-237.168c-32.185-29.7-74.225-47.507-119.061-49.191v-55.032c60.994 1.749 116.376 26.274 157.937 65.347zm-10.612 10.612-38.941 38.941c-18.796-16.528-42.962-27.08-69.507-28.668v-55.058c40.796 1.668 79.05 17.848 108.448 44.785zm-115.449 157.056c-17.093 0-31-13.906-31-31s13.907-31 31-31c8.529 0 16.264 3.463 21.875 9.056.012.012.021.025.033.037s.025.021.036.033c5.593 5.61 9.056 13.345 9.056 21.874 0 17.094-13.907 31-31 31zm26.767-68.374c-5.748-4.128-12.474-6.976-19.767-8.094v-55.285c22.414 1.542 42.841 10.425 58.884 24.263zm-34.767-7.915c-18.962 3.341-33.948 18.327-37.289 37.289h-55.394c3.884-49.326 43.358-88.8 92.684-92.684v55.395zm15 90.757c19.771-3.031 35.437-18.697 38.468-38.468h55.285c-3.448 50.124-43.629 90.305-93.753 93.753zm38.289-53.468c-1.217-6.907-3.977-13.285-7.915-18.767l39.116-39.116c13.632 15.804 22.459 35.862 24.193 57.884h-55.394zm-127.789-175c14.061 0 25.5 11.439 25.5 25.5s-11.439 25.5-25.5 25.5-25.5-11.439-25.5-25.5 11.439-25.5 25.5-25.5zm-29.134 53.59c7.371 7.642 17.703 12.41 29.134 12.41 22.332 0 40.5-18.168 40.5-40.5 0-2.763-.28-5.461-.81-8.07 11.362-2.939 23.018-4.691 34.81-5.238v55.089c-57.6 3.943-103.776 50.118-107.719 107.719h-55.081c2.167-47.016 23.374-90.544 59.166-121.41zm-129.257 136.41h55.034c1.514 40.061 15.982 78.605 41.234 109.823-3.71 5.66-5.876 12.418-5.876 19.677 0 19.851 16.149 36 36 36 9.491 0 18.131-3.698 24.569-9.722 25.118 13.921 53.182 21.792 81.931 23.029v55.046c-126.875-4.161-229.25-106.851-232.892-233.853zm400.891 94c-11.58 0-21-9.421-21-21s9.42-21 21-21 21 9.421 21 21-9.42 21-21 21zm5.16-56.625c-1.686-.243-3.408-.375-5.16-.375-19.851 0-36 16.149-36 36 0 9.911 4.026 18.898 10.528 25.414-30.921 39.348-77.719 63.356-127.528 65.423v-55.054c58.398-3.494 105.289-50.384 108.783-108.783h55.072c-.514 12.678-2.42 25.2-5.695 37.375z"/></g></svg>