<svg id="Layer_1" enable-background="new 0 0 128 128" height="512" viewBox="0 0 128 128" width="512" xmlns="http://www.w3.org/2000/svg"><g><g><path d="m111.144 19.358h-4.569c-.848-1.543-1.937-2.967-3.254-4.223-3.462-3.3-8.014-4.99-12.801-4.762-6.15.295-11.493 3.869-14.322 8.984h-55.342c-3.309 0-6 2.691-6 6v90.288c0 3.309 2.691 6 6 6h90.288c3.309 0 6-2.691 6-6v-90.287c0-3.308-2.691-6-6-6z" fill="#e6e7e8"/></g><g><g><path d="m112.144 66.502v-45.143c0-2.761-2.239-5-5-5h-45.144v50.144h50.144z" fill="#6dc9f7"/><g><path d="m62 16.359h-45.144c-2.761 0-5 2.239-5 5v45.144h50.144z" fill="#d4fbff"/></g><g><path d="m19.856 16.359h-3c-2.761 0-5 2.239-5 5v45.144h3v-45.144c0-2.762 2.239-5 5-5z" fill="#fff"/></g><g><path d="m11.856 66.502v45.144c0 2.761 2.239 5 5 5h45.144v-50.144z" fill="#ffd7e5"/></g><g><path d="m14.856 111.646v-45.144h-3v45.144c0 2.761 2.239 5 5 5h3c-2.761 0-5-2.238-5-5z" fill="#fff"/></g><path d="m62 66.502v50.144h45.144c2.761 0 5-2.239 5-5v-45.144z" fill="#0089ef"/></g><g><path d="m103.693 23.675c0-9.281-7.746-16.752-17.125-16.302-8.382.402-15.227 7.353-15.508 15.74-.147 4.382 1.434 8.392 4.113 11.404 4.2 4.721 7.397 10.243 8.988 16.358l.804 3.087c.646 2.481 4.168 2.481 4.814 0l.803-3.085c1.6-6.149 4.863-11.664 9.057-16.437 2.523-2.872 4.054-6.639 4.054-10.765z" fill="#fa759e"/><g><ellipse cx="87.371" cy="23.013" fill="#ffd7e5" rx="8.576" ry="8.576" transform="matrix(.973 -.23 .23 .973 -2.95 20.69)"/><g fill="#3a2c60"><path d="m107.144 15.359h-4.568c-.848-1.544-1.937-2.967-3.255-4.223-3.462-3.3-8.007-4.986-12.801-4.762-6.15.295-11.493 3.869-14.322 8.985h-22.698c-.552 0-1 .448-1 1s.448 1 1 1h11.5v48.144h-48.144v-44.144c0-2.206 1.794-4 4-4h17.394c.552 0 1-.448 1-1s-.448-1-1-1h-17.394c-3.309 0-6 2.691-6 6v90.288c0 3.309 2.691 6 6 6h90.288c3.309 0 6-2.691 6-6v-90.288c0-3.309-2.692-6-6-6zm-20.529-6.987c.255-.012.509-.019.763-.019 3.958 0 7.685 1.486 10.563 4.23 3.064 2.921 4.752 6.86 4.752 11.092 0 3.723-1.352 7.312-3.806 10.105-4.609 5.247-7.729 10.915-9.273 16.846l-.803 3.084c-.213.821-.883 1.113-1.439 1.113s-1.226-.292-1.439-1.113l-.804-3.087c-1.567-6.021-4.666-11.664-9.209-16.77-2.623-2.948-3.994-6.75-3.861-10.707.265-7.905 6.659-14.395 14.556-14.774zm-12.19 26.81c4.331 4.868 7.281 10.232 8.768 15.945l.804 3.087c.406 1.561 1.762 2.609 3.375 2.609s2.969-1.048 3.375-2.609l.803-3.084c1.464-5.626 4.439-11.02 8.841-16.029 2.775-3.159 4.303-7.217 4.303-11.426 0-2.205-.423-4.332-1.199-6.316h3.649c2.206 0 4 1.794 4 4v44.144h-48.144v-48.144h8.271c-.709 1.788-1.144 3.71-1.211 5.721-.15 4.471 1.4 8.769 4.365 12.102zm-61.569 76.464v-44.143h48.144v48.144h-44.144c-2.206-.001-4-1.795-4-4.001zm98.288 0c0 2.206-1.794 4-4 4h-44.144v-48.143h48.144z"/><path d="m38.375 17.359h6.875c.552 0 1-.448 1-1s-.448-1-1-1h-6.875c-.552 0-1 .448-1 1s.448 1 1 1z"/><path d="m87.371 32.589c5.28 0 9.576-4.296 9.576-9.576s-4.296-9.576-9.576-9.576-9.576 4.296-9.576 9.576 4.296 9.576 9.576 9.576zm0-17.153c4.178 0 7.576 3.398 7.576 7.576s-3.398 7.576-7.576 7.576-7.576-3.398-7.576-7.576 3.398-7.576 7.576-7.576z"/></g></g></g></g></g></svg>