<?xml version="1.0" encoding="UTF-8"?>
<!DOCTYPE svg PUBLIC "-//W3C//DTD SVG 1.1//EN" "http://www.w3.org/Graphics/SVG/1.1/DTD/svg11.dtd">
<svg version="1.1" xmlns="http://www.w3.org/2000/svg" xmlns:xlink="http://www.w3.org/1999/xlink" x="0" y="0" width="512" height="512" viewBox="0, 0, 512, 512">
  <g id="Background">
    <rect x="0" y="0" width="512" height="512" fill="#000000" fill-opacity="0"/>
  </g>
  <g id="Layer_1">
    <path d="M20.015,0 L491.985,0 C503.039,0 512,8.947 512,19.983 L512,492.017 C512,503.053 503.039,512 491.985,512 L20.015,512 C8.961,512 -0,503.053 -0,492.017 L-0,19.983 C-0,8.947 8.961,0 20.015,0 z" fill="#005B77"/>
    <g>
      <g>
        <path d="M461.727,68.864 L461.727,218.864 C461.727,228.905 453.587,237.045 443.545,237.045 L293.545,237.045 C283.504,237.045 275.364,228.905 275.364,218.864 L275.364,68.864 C275.364,58.822 283.504,50.682 293.545,50.682 L443.545,50.682 C453.587,50.682 461.727,58.822 461.727,68.864 z" fill="#00C3FF"/>
        <path d="M297.421,223.944 L297.421,60.147 C297.421,54.928 304.896,50.697 314.118,50.697 L291.854,50.697 C282.632,50.697 275.156,54.928 275.156,60.147 L275.156,223.944 C275.156,229.163 282.632,233.394 291.854,233.394 L314.118,233.394 C304.896,233.394 297.421,229.163 297.421,223.944 z" fill="#00AAF0"/>
        <g>
          <path d="M418.649,196.461 L418.649,209.953 C418.649,215.542 423.87,220.073 430.31,220.073 L430.31,220.073 C436.75,220.073 441.971,215.542 441.971,209.953 L441.971,196.461 C441.971,190.873 436.75,186.342 430.31,186.342 L430.31,186.342 C423.87,186.342 418.649,190.873 418.649,196.461 z" fill="#7DD7FF"/>
          <path d="M418.649,75.031 L418.649,162.731 C418.649,168.319 423.87,172.85 430.31,172.85 L430.31,172.85 C436.75,172.85 441.971,168.319 441.971,162.731 L441.971,75.031 C441.971,69.443 436.75,64.912 430.31,64.912 L430.31,64.912 C423.87,64.912 418.649,69.443 418.649,75.031 z" fill="#7DD7FF"/>
        </g>
        <path d="M469,73.508 L469,211.492 C469,228.617 455.117,242.5 437.992,242.5 L300.008,242.5 C282.883,242.5 269,228.617 269,211.492 L269,73.508 C269,56.383 282.883,42.5 300.008,42.5 L437.992,42.5 C455.117,42.5 469,56.383 469,73.508 z" fill-opacity="0" stroke="#000000" stroke-width="20"/>
      </g>
      <g>
        <path d="M69.364,49.773 L219.364,49.773 C229.405,49.773 237.545,57.913 237.545,67.955 L237.545,217.955 C237.545,227.996 229.405,236.136 219.364,236.136 L69.364,236.136 C59.322,236.136 51.182,227.996 51.182,217.955 L51.182,67.955 C51.182,57.913 59.322,49.773 69.364,49.773 z" fill="#00C3FF"/>
        <path d="M224.444,214.079 L60.647,214.079 C55.428,214.079 51.197,206.604 51.197,197.382 L51.197,219.646 C51.197,228.868 55.428,236.344 60.647,236.344 L224.444,236.344 C229.663,236.344 233.894,228.868 233.894,219.646 L233.894,197.382 C233.894,206.604 229.663,214.079 224.444,214.079 z" fill="#00AAF0"/>
        <g>
          <path d="M196.961,92.851 L210.453,92.851 C216.042,92.851 220.573,87.63 220.573,81.19 L220.573,81.19 C220.573,74.75 216.042,69.529 210.453,69.529 L196.961,69.529 C191.373,69.529 186.842,74.75 186.842,81.19 L186.842,81.19 C186.842,87.63 191.373,92.851 196.961,92.851 z" fill="#7DD7FF"/>
          <path d="M75.531,92.851 L163.231,92.851 C168.819,92.851 173.35,87.63 173.35,81.19 L173.35,81.19 C173.35,74.75 168.819,69.529 163.231,69.529 L75.531,69.529 C69.943,69.529 65.412,74.75 65.412,81.19 L65.412,81.19 C65.412,87.63 69.943,92.851 75.531,92.851 z" fill="#7DD7FF"/>
        </g>
        <path d="M74.008,42.5 L211.992,42.5 C229.117,42.5 243,56.383 243,73.508 L243,211.492 C243,228.617 229.117,242.5 211.992,242.5 L74.008,242.5 C56.883,242.5 43,228.617 43,211.492 L43,73.508 C43,56.383 56.883,42.5 74.008,42.5 z" fill-opacity="0" stroke="#000000" stroke-width="20"/>
      </g>
      <g>
        <path d="M442.636,462.227 L292.636,462.227 C282.595,462.227 274.455,454.087 274.455,444.045 L274.455,294.045 C274.455,284.004 282.595,275.864 292.636,275.864 L442.636,275.864 C452.678,275.864 460.818,284.004 460.818,294.045 L460.818,444.045 C460.818,454.087 452.678,462.227 442.636,462.227 z" fill="#00C3FF"/>
        <path d="M287.556,297.921 L451.353,297.921 C456.572,297.921 460.803,305.396 460.803,314.618 L460.803,292.354 C460.803,283.132 456.572,275.656 451.353,275.656 L287.556,275.656 C282.337,275.656 278.106,283.132 278.106,292.354 L278.106,314.618 C278.106,305.396 282.337,297.921 287.556,297.921 z" fill="#00AAF0"/>
        <g>
          <path d="M315.039,419.149 L301.547,419.149 C295.958,419.149 291.427,424.37 291.427,430.81 L291.427,430.81 C291.427,437.25 295.958,442.471 301.547,442.471 L315.039,442.471 C320.627,442.471 325.158,437.25 325.158,430.81 L325.158,430.81 C325.158,424.37 320.627,419.149 315.039,419.149 z" fill="#7DD7FF"/>
          <path d="M436.469,419.149 L348.769,419.149 C343.181,419.149 338.65,424.37 338.65,430.81 L338.65,430.81 C338.65,437.25 343.181,442.471 348.769,442.471 L436.469,442.471 C442.057,442.471 446.588,437.25 446.588,430.81 L446.588,430.81 C446.588,424.37 442.057,419.149 436.469,419.149 z" fill="#7DD7FF"/>
        </g>
        <path d="M437.992,469.5 L300.008,469.5 C282.883,469.5 269,455.617 269,438.492 L269,300.508 C269,283.383 282.883,269.5 300.008,269.5 L437.992,269.5 C455.117,269.5 469,283.383 469,300.508 L469,438.492 C469,455.617 455.117,469.5 437.992,469.5 z" fill-opacity="0" stroke="#000000" stroke-width="20"/>
      </g>
      <g>
        <path d="M50.273,443.136 L50.273,293.136 C50.273,283.095 58.413,274.955 68.455,274.955 L218.455,274.955 C228.496,274.955 236.636,283.095 236.636,293.136 L236.636,443.136 C236.636,453.178 228.496,461.318 218.455,461.318 L68.455,461.318 C58.413,461.318 50.273,453.178 50.273,443.136 z" fill="#00C3FF"/>
        <path d="M214.579,288.056 L214.579,451.853 C214.579,457.072 207.104,461.303 197.882,461.303 L220.146,461.303 C229.368,461.303 236.844,457.072 236.844,451.853 L236.844,288.056 C236.844,282.837 229.368,278.606 220.146,278.606 L197.882,278.606 C207.104,278.606 214.579,282.837 214.579,288.056 z" fill="#00AAF0"/>
        <g>
          <path d="M93.351,315.539 L93.351,302.047 C93.351,296.458 88.13,291.927 81.69,291.927 L81.69,291.927 C75.25,291.927 70.029,296.458 70.029,302.047 L70.029,315.539 C70.029,321.127 75.25,325.658 81.69,325.658 L81.69,325.658 C88.13,325.658 93.351,321.127 93.351,315.539 z" fill="#7DD7FF"/>
          <path d="M93.351,436.969 L93.351,349.269 C93.351,343.681 88.13,339.15 81.69,339.15 L81.69,339.15 C75.25,339.15 70.029,343.681 70.029,349.269 L70.029,436.969 C70.029,442.557 75.25,447.088 81.69,447.088 L81.69,447.088 C88.13,447.088 93.351,442.557 93.351,436.969 z" fill="#7DD7FF"/>
        </g>
        <path d="M43,438.492 L43,300.508 C43,283.383 56.883,269.5 74.008,269.5 L211.992,269.5 C229.117,269.5 243,283.383 243,300.508 L243,438.492 C243,455.617 229.117,469.5 211.992,469.5 L74.008,469.5 C56.883,469.5 43,455.617 43,438.492 z" fill-opacity="0" stroke="#000000" stroke-width="20"/>
      </g>
    </g>
  </g>
</svg>
