<?xml version="1.0" encoding="UTF-8"?>
<!DOCTYPE svg PUBLIC "-//W3C//DTD SVG 1.1//EN" "http://www.w3.org/Graphics/SVG/1.1/DTD/svg11.dtd">
<svg version="1.1" xmlns="http://www.w3.org/2000/svg" xmlns:xlink="http://www.w3.org/1999/xlink" x="0" y="0" width="512" height="512" viewBox="0, 0, 512, 512">
  <g id="Background">
    <rect x="0" y="0" width="512" height="512" fill="#000000" fill-opacity="0"/>
  </g>
  <defs>
    <linearGradient id="Gradient_1" gradientUnits="userSpaceOnUse" x1="138" y1="313" x2="138" y2="62">
      <stop offset="0" stop-color="#7DD7FF"/>
      <stop offset="1" stop-color="#FF2B2B"/>
    </linearGradient>
  </defs>
  <g id="original">
    <path d="M20.015,-0 L491.985,-0 C503.039,-0 512,8.947 512,19.983 L512,492.017 C512,503.053 503.039,512 491.985,512 L20.015,512 C8.961,512 0,503.053 0,492.017 L0,19.983 C0,8.947 8.961,-0 20.015,-0 z" fill="#005B77"/>
    <g>
      <path d="M135,62 L141,62 C152.046,62 161,70.954 161,82 L161,293 C161,304.046 152.046,313 141,313 L135,313 C123.954,313 115,304.046 115,293 L115,82 C115,70.954 123.954,62 135,62 z" fill="url(#Gradient_1)"/>
      <path d="M135,62 L141,62 C152.046,62 161,70.954 161,82 L161,293 C161,304.046 152.046,313 141,313 L135,313 C123.954,313 115,304.046 115,293 L115,82 C115,70.954 123.954,62 135,62 z" fill-opacity="0" stroke="#000000" stroke-width="15"/>
    </g>
    <g>
      <path d="M218.838,386.86 C218.838,429.849 183.989,464.699 140.999,464.699 C98.01,464.699 63.16,429.849 63.16,386.86 C63.16,343.871 98.01,309.021 140.999,309.021 C183.989,309.021 218.838,343.871 218.838,386.86 z" fill="#00C3FF"/>
      <path d="M166.945,438.752 C123.955,438.752 89.106,403.903 89.106,360.913 C89.106,346.075 93.333,332.255 100.539,320.455 C78.153,334.126 63.159,358.709 63.159,386.86 C63.159,429.85 98.008,464.699 140.998,464.699 C169.148,464.699 193.734,449.706 207.403,427.318 C195.603,434.524 181.785,438.752 166.945,438.752 z" fill="#00AAF0"/>
      <path d="M179.918,399.833 C172.747,399.833 166.945,394.031 166.945,386.86 C166.945,372.557 155.301,360.913 140.998,360.913 C133.827,360.913 128.025,355.112 128.025,347.941 C128.025,340.77 133.827,334.968 140.998,334.968 C169.616,334.968 192.89,358.242 192.89,386.86 C192.892,394.031 187.088,399.833 179.918,399.833 z" fill="#7DD7FF"/>
      <path d="M207.056,343.907 C200.93,346.659 198.192,353.859 200.945,359.986 C204.747,368.449 206.674,377.492 206.674,386.86 C206.674,423.074 177.212,452.536 140.998,452.536 C104.784,452.536 75.323,423.074 75.323,386.86 C75.323,350.646 104.785,321.184 140.999,321.184 C150.581,321.184 159.815,323.199 168.441,327.171 C174.543,329.975 181.766,327.313 184.577,321.213 C187.386,315.111 184.718,307.887 178.618,305.077 C166.778,299.625 154.121,296.86 141.001,296.86 C91.374,296.86 51,337.233 51,386.86 C51,436.487 91.371,476.86 140.999,476.86 C190.628,476.86 231,436.487 231,386.86 C231,374.033 228.354,361.637 223.135,350.018 C220.383,343.889 213.185,341.152 207.056,343.907 z" fill="#000000"/>
    </g>
    <path d="M163,89 L183,89" fill-opacity="0" stroke="#000000" stroke-width="15" stroke-linecap="round"/>
    <path d="M163,186 L178,186" fill-opacity="0" stroke="#000000" stroke-width="15" stroke-linecap="round"/>
    <path d="M163,283 L183,283" fill-opacity="0" stroke="#000000" stroke-width="15" stroke-linecap="round"/>
  </g>
</svg>
