<?xml version="1.0" encoding="UTF-8"?>
<!DOCTYPE svg PUBLIC "-//W3C//DTD SVG 1.1//EN" "http://www.w3.org/Graphics/SVG/1.1/DTD/svg11.dtd">
<svg version="1.1" xmlns="http://www.w3.org/2000/svg" xmlns:xlink="http://www.w3.org/1999/xlink" x="0" y="0" width="512" height="512" viewBox="0, 0, 512, 512">
  <g id="Background">
    <rect x="0" y="0" width="512" height="512" fill="#000000" fill-opacity="0"/>
  </g>
  <g id="original">
    <path d="M20.015,-0 L491.985,-0 C503.039,-0 512,8.947 512,19.983 L512,492.017 C512,503.053 503.039,512 491.985,512 L20.015,512 C8.961,512 0,503.053 0,492.017 L0,19.983 C0,8.947 8.961,-0 20.015,-0 z" fill="#005B77"/>
    <path d="M52,78 L460,78" fill-opacity="0" stroke="#000000" stroke-width="25" stroke-linecap="round" stroke-miterlimit="0"/>
    <g>
      <path d="M310.98,81.57 C310.98,111.935 286.365,136.55 256,136.55 C225.635,136.55 201.02,111.935 201.02,81.57 C201.02,51.205 225.635,26.59 256,26.59 C286.365,26.59 310.98,51.205 310.98,81.57 z" fill="#00C3FF"/>
      <path d="M274.326,118.224 C243.961,118.224 219.346,93.609 219.346,63.244 C219.346,52.763 222.332,43.002 227.422,34.667 C211.61,44.322 201.019,61.687 201.019,81.571 C201.019,111.936 225.634,136.551 255.999,136.551 C275.882,136.551 293.248,125.961 302.903,110.148 C294.568,115.238 284.808,118.224 274.326,118.224 z" fill="#00AAF0"/>
      <path d="M283.489,90.734 C278.424,90.734 274.326,86.636 274.326,81.571 C274.326,71.468 266.102,63.244 255.999,63.244 C250.934,63.244 246.836,59.146 246.836,54.081 C246.836,49.016 250.934,44.918 255.999,44.918 C276.213,44.918 292.652,61.357 292.652,81.571 C292.653,86.635 288.554,90.734 283.489,90.734 z" fill="#7DD7FF"/>
      <path d="M256,145.141 C291.053,145.141 319.57,116.624 319.57,81.571 C319.57,72.511 317.701,63.755 314.015,55.548 C312.071,51.221 306.986,49.287 302.658,51.231 C298.33,53.175 296.397,58.26 298.341,62.588 C301.028,68.566 302.389,74.954 302.389,81.571 C302.389,107.15 281.579,127.96 256,127.96 C230.421,127.96 209.61,107.15 209.61,81.57 C209.61,55.99 230.42,35.181 255.999,35.181 C262.767,35.181 269.289,36.604 275.382,39.41 C279.692,41.39 284.794,39.511 286.779,35.201 C288.763,30.891 286.879,25.789 282.57,23.804 C274.207,19.953 265.267,18 256,18 C220.947,18 192.43,46.517 192.43,81.57 C192.43,116.623 220.946,145.141 256,145.141 z" fill="#000000"/>
    </g>
    <g>
      <path d="M364.109,368.86 C364.109,428.567 315.707,476.969 255.999,476.969 C196.291,476.969 147.889,428.567 147.889,368.86 C147.889,309.153 196.291,260.751 255.999,260.751 C315.707,260.751 364.109,309.153 364.109,368.86 z" fill="#00C3FF"/>
      <path d="M292.034,440.932 C232.326,440.932 183.924,392.531 183.924,332.823 C183.924,312.214 189.796,293.02 199.805,276.631 C168.713,295.618 147.887,329.761 147.887,368.86 C147.887,428.568 196.289,476.969 255.997,476.969 C295.094,476.969 329.242,456.146 348.227,425.052 C331.837,435.061 312.646,440.932 292.034,440.932 z" fill="#00AAF0"/>
      <path d="M310.052,386.878 C300.093,386.878 292.034,378.819 292.034,368.86 C292.034,348.994 275.863,332.823 255.997,332.823 C246.038,332.823 237.979,324.765 237.979,314.805 C237.979,304.846 246.038,296.788 255.997,296.788 C295.745,296.788 328.07,329.112 328.07,368.86 C328.072,378.819 320.012,386.878 310.052,386.878 z" fill="#7DD7FF"/>
      <path d="M347.745,309.203 C339.237,313.026 335.434,323.025 339.256,331.535 C344.538,343.29 347.214,355.849 347.214,368.86 C347.214,419.157 306.294,460.076 255.997,460.076 C205.7,460.076 164.782,419.157 164.782,368.86 C164.782,318.563 205.702,277.644 255.999,277.644 C269.307,277.644 282.132,280.442 294.113,285.959 C302.588,289.853 312.62,286.156 316.523,277.683 C320.425,269.208 316.72,259.176 308.247,255.273 C291.802,247.7 274.223,243.86 256.001,243.86 C187.074,243.86 131,299.934 131,368.86 C131,437.786 187.071,493.86 255.999,493.86 C324.928,493.86 381,437.786 381,368.86 C381,351.045 377.325,333.828 370.077,317.69 C366.254,309.178 356.257,305.377 347.745,309.203 z" fill="#000000"/>
    </g>
  </g>
</svg>
