<?xml version="1.0" encoding="UTF-8"?>
<!DOCTYPE svg PUBLIC "-//W3C//DTD SVG 1.1//EN" "http://www.w3.org/Graphics/SVG/1.1/DTD/svg11.dtd">
<svg version="1.1" xmlns="http://www.w3.org/2000/svg" xmlns:xlink="http://www.w3.org/1999/xlink" x="0" y="0" width="512" height="512" viewBox="0, 0, 512, 512">
  <g id="original">
    <path d="M20.015,0 L491.985,0 C503.039,0 512,8.947 512,19.983 L512,492.017 C512,503.053 503.039,512 491.985,512 L20.015,512 C8.961,512 -0,503.053 -0,492.017 L-0,19.983 C-0,8.947 8.961,0 20.015,0 z" fill="#005B77"/>
    <g>
      <path d="M145.312,28.707 L417.656,28.707 C434.163,28.707 436.431,34.442 436.431,39.945 L436.431,122.655 C436.431,128.158 434.163,133.443 417.656,133.443 L145.312,133.443 C128.805,133.443 125.93,127.787 125.93,122.284 L125.93,40.078 C125.93,34.574 128.805,28.707 145.312,28.707 z" fill="#00C3FF"/>
      <path d="M419.296,114.579 L142.954,114.579 C134.149,114.579 127.011,107.104 127.011,97.882 L127.011,120.146 C127.011,129.368 134.149,136.844 142.954,136.844 L419.296,136.844 C428.101,136.844 435.238,129.368 435.238,120.146 L435.238,97.882 C435.238,107.104 428.101,114.579 419.296,114.579 z" fill="#00AAF0"/>
      <g>
        <path d="M303.961,74.351 L317.453,74.351 C323.042,74.351 327.573,69.13 327.573,62.69 L327.573,62.69 C327.573,56.25 323.042,51.029 317.453,51.029 L303.961,51.029 C298.373,51.029 293.842,56.25 293.842,62.69 L293.842,62.69 C293.842,69.13 298.373,74.351 303.961,74.351 z" fill="#7DD7FF"/>
        <path d="M270.827,112.996 C262.822,112.996 256.333,95.382 256.333,73.654 C256.333,51.927 262.822,34.313 270.827,34.313 C278.832,34.313 285.321,51.927 285.321,73.654 C285.321,95.382 278.832,112.996 270.827,112.996 z" fill="#7DD7FF"/>
        <path d="M265.443,75.109 C263.208,75.109 261.396,69.848 261.396,63.359 C261.396,56.869 263.208,51.609 265.443,51.609 C267.678,51.609 269.49,56.869 269.49,63.359 C269.49,69.848 267.678,75.109 265.443,75.109 z" fill="#02C3FF"/>
        <path d="M152.531,74.351 L240.231,74.351 C245.819,74.351 250.35,69.13 250.35,62.69 L250.35,62.69 C250.35,56.25 245.819,51.029 240.231,51.029 L152.531,51.029 C146.943,51.029 142.412,56.25 142.412,62.69 L142.412,62.69 C142.412,69.13 146.943,74.351 152.531,74.351 z" fill="#7DD7FF"/>
      </g>
      <path d="M145.312,24 L417.656,24 C437.389,24 441.094,33.621 441.029,47.165 L441.007,115.791 C441.008,129.632 436.112,137.626 417.656,137.626 L145.312,137.626 C127.117,137.626 121.099,129.4 121.1,115.791 L121.081,47.165 C121.002,34.32 127.756,24 145.312,24 z" fill-opacity="0" stroke="#000000" stroke-width="12" stroke-linecap="round" stroke-linejoin="round"/>
    </g>
    <path d="M441.621,76.251 C441.621,76.251 499.147,76.432 499.31,119.322 C499.505,170.794 396.372,211.02 294.617,237.642 C186.834,265.841 124.236,266.908 74.542,300.63 C49.103,320.152 28.2,357.918 52.49,390.885 C57.654,397.895 80.908,427.087 169.198,431.965 C276.277,437.881 314.283,435.153 327.995,434.923" fill-opacity="0" stroke="#000000" stroke-width="8" stroke-linecap="round" stroke-linejoin="round"/>
    <g>
      <path d="M342.382,364.825 L427.601,364.825 C433.306,364.825 437.931,369.45 437.931,375.155 L437.931,460.375 C437.931,466.08 433.306,470.705 427.601,470.705 L342.382,470.705 C336.677,470.705 332.052,466.08 332.052,460.375 L332.052,375.155 C332.052,369.45 336.677,364.825 342.382,364.825 z" fill="#00C3FF"/>
      <path d="M430.488,458.173 L337.429,458.173 C334.464,458.173 332.061,453.926 332.061,448.687 L332.061,461.336 C332.061,466.575 334.464,470.822 337.429,470.822 L430.488,470.822 C433.453,470.822 435.856,466.575 435.856,461.336 L435.856,448.687 C435.856,453.926 433.453,458.173 430.488,458.173 z" fill="#00AAF0"/>
      <g>
        <path d="M414.874,389.299 L422.539,389.299 C425.714,389.299 428.288,386.333 428.288,382.675 L428.288,382.675 C428.288,379.016 425.714,376.05 422.539,376.05 L414.874,376.05 C411.699,376.05 409.125,379.016 409.125,382.675 L409.125,382.675 C409.125,386.333 411.699,389.299 414.874,389.299 z" fill="#7DD7FF"/>
        <path d="M345.886,389.299 L395.71,389.299 C398.886,389.299 401.46,386.333 401.46,382.675 L401.46,382.675 C401.46,379.016 398.886,376.05 395.71,376.05 L345.886,376.05 C342.71,376.05 340.136,379.016 340.136,382.675 L340.136,382.675 C340.136,386.333 342.711,389.299 345.886,389.299 z" fill="#7DD7FF"/>
      </g>
      <path d="M345.02,360.694 L423.413,360.694 C433.143,360.694 441.03,368.581 441.03,378.31 L441.03,456.703 C441.03,466.433 433.143,474.32 423.413,474.32 L345.02,474.32 C335.291,474.32 327.404,466.433 327.404,456.703 L327.404,378.31 C327.404,368.581 335.291,360.694 345.02,360.694 z" fill-opacity="0" stroke="#000000" stroke-width="12"/>
    </g>
    <path d="M99.98,415.306" fill="#00C3FF"/>
    <path d="M-0,50.286 L115.362,50.286 L115.362,76.432 L-0,76.432 L-0,50.286 z" fill="#FFF3AA" opacity="0.858"/>
    <path d="M433.948,433.195 L335.637,452.67 C333.305,441.223 333.07,429.455 334.942,417.918 L433.948,433.195 z" fill="#DEDEA3"/>
  </g>
</svg>
