<svg id="Capa_1" enable-background="new 0 0 512 512" height="512" viewBox="0 0 512 512" width="512" xmlns="http://www.w3.org/2000/svg"><g><g><path d="m467.799 113.945c-8.181 0-14.814 6.632-14.814 14.814v177.961c0 13.093-5.099 25.403-14.358 34.661-3.027 3.027-5.761 6.266-8.221 9.669-2.46-3.403-5.194-6.642-8.221-9.669-9.258-9.258-14.357-21.568-14.357-34.661v-73.245c0-8.181-6.632-14.814-14.814-14.814-8.181 0-14.814 6.632-14.814 14.814v73.245c0 21.007 8.18 40.757 23.035 55.61 9.258 9.258 14.357 21.568 14.357 34.661v22.461c0 28.662-23.318 51.98-51.979 51.98h-130.36c-28.662 0-51.98-23.318-51.98-51.98v-10.795c0-8.181-6.632-14.814-14.814-14.814s-14.814 6.632-14.814 14.814v10.795c0 44.998 36.609 81.607 81.607 81.607h130.361c44.998 0 81.607-36.609 81.607-81.607v-22.461c0-13.093 5.099-25.403 14.357-34.66 14.854-14.854 23.036-34.604 23.036-55.611v-177.962c0-8.181-6.633-14.813-14.814-14.813z" fill="#f1f1f4"/><g fill="#e2d8ec"><path d="m443.668 351.049c2.46-3.403 5.194-6.642 8.221-9.669 9.259-9.258 14.358-21.568 14.358-34.661v-177.961c0-5.795 3.335-10.799 8.183-13.233-1.997-1.003-4.244-1.581-6.631-1.581-8.181 0-14.814 6.632-14.814 14.814v177.961c0 13.093-5.099 25.403-14.358 34.661-.543.543-1.066 1.101-1.59 1.658 2.398 2.545 4.612 5.219 6.631 8.011z"/><path d="m363.614 471.432h13.261c28.661 0 51.979-23.318 51.979-51.98v-22.461c0-13.093-5.099-25.403-14.357-34.661-14.854-14.854-23.035-34.604-23.035-55.61v-73.245c0-5.795 3.335-10.799 8.183-13.233-1.997-1.003-4.244-1.581-6.63-1.581-8.181 0-14.814 6.632-14.814 14.814v73.245c0 21.007 8.18 40.757 23.035 55.61 9.258 9.258 14.357 21.568 14.357 34.661v22.461c0 28.662-23.318 51.98-51.979 51.98z"/><path d="m164.907 419.452v-10.795c0-5.795 3.335-10.799 8.183-13.233-1.997-1.003-4.244-1.581-6.631-1.581-8.181 0-14.814 6.632-14.814 14.814v10.795c0 44.998 36.609 81.607 81.607 81.607h13.261c-44.997 0-81.606-36.609-81.606-81.607z"/></g><path d="m442.778 125.388 25.021 11.68 25.021-11.68v-61.724c0-13.819-11.202-25.021-25.021-25.021-13.819 0-25.021 11.202-25.021 25.021z" fill="#df6b57"/><path d="m459.814 125.388 16.503 7.703-8.523 3.98-25.015-11.683v-66.662c0-6.913 2.805-13.165 7.328-17.697 4.523-4.523 10.784-7.328 17.688-7.328 2.992 0 5.866.523 8.523 1.491-3.486 1.254-6.607 3.269-9.175 5.837-4.533 4.533-7.328 10.784-7.328 17.697v66.662z" fill="#da4a54"/><path d="m259.2 10.948h-175.608c-42.024 0-76.092 34.068-76.092 76.092v245.524c0 42.024 34.068 76.092 76.092 76.092h175.608c42.025 0 76.092-34.068 76.092-76.092v-245.524c0-42.024-34.068-76.092-76.092-76.092z" fill="#f6e266"/><path d="m122.702 408.657h-39.109c-42.022 0-76.093-34.072-76.093-76.093v-245.524c0-42.022 34.072-76.093 76.093-76.093h39.108c-42.022 0-76.093 34.072-76.093 76.093v245.524c0 42.021 34.072 76.093 76.094 76.093z" fill="#ffd064"/><path d="m68.686 206.557v90.078c0 14.804-9.135 27.465-22.082 32.66-4.039 1.629-8.454 2.518-13.085 2.518h-26.014v-160.433h26.013c4.632 0 9.046.889 13.085 2.518 12.948 5.194 22.083 17.855 22.083 32.659z" fill="#756e78"/><path d="m46.603 173.898v155.396c-4.039 1.629-8.454 2.518-13.085 2.518h-26.013v-160.432h26.013c4.632 0 9.046.888 13.085 2.518z" fill="#665e66"/><path d="m309.275 171.381h26.017v160.433h-26.017c-19.426 0-35.174-15.748-35.174-35.174v-90.085c0-19.427 15.748-35.174 35.174-35.174z" fill="#756e78"/><path d="m105.906 160.437h130.98c28.763 0 52.08-23.317 52.08-52.08 0-28.763-23.317-52.08-52.08-52.08h-130.98c-28.763 0-52.08 23.317-52.08 52.08.001 28.763 23.317 52.08 52.08 52.08z" fill="#b1e4f9"/><path d="m140.852 160.433h-34.941c-28.768 0-52.085-23.317-52.085-52.075 0-14.389 5.827-27.405 15.258-36.827 9.422-9.432 22.438-15.258 36.827-15.258h34.941c-14.389 0-27.405 5.827-36.827 15.258-9.431 9.422-15.258 22.438-15.258 36.827 0 28.757 23.317 52.075 52.085 52.075z" fill="#90d8f9"/><circle cx="171.396" cy="302.881" fill="#756e78" r="71.012"/><path d="m184.971 372.585c-4.395.859-8.938 1.303-13.579 1.303-39.217 0-71.007-31.79-71.007-71.007 0-39.227 31.79-71.017 71.007-71.017 4.642 0 9.185.444 13.579 1.303-32.719 6.33-57.428 35.128-57.428 69.713 0 34.577 24.709 63.375 57.428 69.705z" fill="#665e66"/><g fill="#756e78"><circle cx="113.455" cy="213.966" r="12.966"/><circle cx="229.337" cy="213.966" r="12.966"/></g><circle cx="171.396" cy="195.354" fill="#756e78" r="12.966"/><path d="m171.396 293.855c-6.103 0-11.051-4.948-11.051-11.051v-20.156c0-6.103 4.948-11.051 11.051-11.051 6.103 0 11.051 4.948 11.051 11.051v20.156c0 6.103-4.948 11.051-11.051 11.051z" fill="#f6e266"/><path d="m166.459 160.437h37.272l37.38-48.955c4.968-6.498 3.723-15.791-2.785-20.759-6.498-4.967-15.801-3.723-20.759 2.785z" fill="#df6b57"/><path d="m442.778 148.748h50.042c6.451 0 11.68-5.229 11.68-11.68 0-6.451-5.229-11.68-11.68-11.68h-50.042c-6.451 0-11.68 5.229-11.68 11.68 0 6.451 5.229 11.68 11.68 11.68z" fill="#df6b57"/><path d="m458.494 145.325c2.113 2.114 5.037 3.417 8.266 3.417h-23.988c-3.229 0-6.143-1.303-8.256-3.417-2.114-2.113-3.417-5.027-3.417-8.256 0-6.459 5.224-11.683 11.673-11.683h23.988c-6.459 0-11.683 5.224-11.683 11.683 0 3.229 1.303 6.142 3.417 8.256z" fill="#da4a54"/><g><path d="m367.995 230.398h50.042v-66.662c0-13.819-11.202-25.021-25.021-25.021-13.819 0-25.021 11.202-25.021 25.021z" fill="#5986cb"/><path d="m385.03 230.398 16.503 7.703-8.523 3.98-25.015-11.683v-66.662c0-6.913 2.805-13.165 7.328-17.697 4.523-4.523 10.784-7.328 17.688-7.328 2.992 0 5.866.523 8.523 1.491-3.486 1.254-6.607 3.269-9.175 5.837-4.533 4.533-7.328 10.784-7.328 17.697v66.662z" fill="#5766cb"/><path d="m367.995 253.758h50.042c6.451 0 11.68-5.229 11.68-11.68 0-6.451-5.229-11.68-11.68-11.68h-50.042c-6.451 0-11.68 5.229-11.68 11.68 0 6.45 5.229 11.68 11.68 11.68z" fill="#5986cb"/><path d="m383.71 250.334c2.113 2.114 5.037 3.417 8.266 3.417h-23.988c-3.229 0-6.143-1.303-8.256-3.417-2.114-2.113-3.417-5.027-3.417-8.256 0-6.459 5.224-11.683 11.673-11.683h23.988c-6.459 0-11.683 5.224-11.683 11.683 0 3.229 1.304 6.143 3.417 8.256z" fill="#5766cb"/></g></g><g><path d="m107.7 167.933c4.142 0 7.5-3.358 7.5-7.5s-3.358-7.5-7.5-7.5h-1.79c-24.587 0-44.59-19.994-44.59-44.57 0-11.915 4.638-23.11 13.066-31.529 8.413-8.422 19.609-13.061 31.524-13.061h130.97c24.587 0 44.59 20.003 44.59 44.59 0 11.897-4.641 23.095-13.063 31.527-8.411 8.411-19.607 13.043-31.526 13.043h-17.983l28.172-36.896c3.62-4.736 5.178-10.598 4.386-16.505s-3.838-11.152-8.574-14.768c-4.739-3.623-10.606-5.182-16.517-4.385-5.909.794-11.152 3.843-14.758 8.577l-48.853 63.977h-25.054c-4.142 0-7.5 3.358-7.5 7.5s3.358 7.5 7.5 7.5h99.18c15.926 0 30.889-6.192 42.137-17.44 11.255-11.267 17.453-26.229 17.453-42.13 0-32.858-26.731-59.59-59.59-59.59h-130.97c-15.925 0-30.889 6.201-42.131 17.454-11.258 11.247-17.459 26.212-17.459 42.136 0 32.847 26.732 59.57 59.59 59.57zm115.833-69.88c1.181-1.55 2.896-2.546 4.829-2.807 1.934-.26 3.857.25 5.413 1.438 1.555 1.187 2.554 2.906 2.813 4.841.259 1.933-.25 3.851-1.438 5.405l-35.125 46.003h-18.398z"/><path d="m171.396 381.393c43.292 0 78.512-35.22 78.512-78.511 0-43.292-35.22-78.512-78.512-78.512s-78.512 35.22-78.512 78.512c0 43.291 35.22 78.511 78.512 78.511zm0-142.023c35.021 0 63.512 28.491 63.512 63.512 0 35.02-28.491 63.511-63.512 63.511s-63.512-28.491-63.512-63.511c0-35.021 28.491-63.512 63.512-63.512z"/><path d="m113.456 193.499c-11.285 0-20.466 9.181-20.466 20.466s9.181 20.466 20.466 20.466 20.466-9.181 20.466-20.466-9.181-20.466-20.466-20.466zm0 25.933c-3.014 0-5.466-2.452-5.466-5.466s2.452-5.466 5.466-5.466 5.466 2.452 5.466 5.466-2.452 5.466-5.466 5.466z"/><path d="m208.87 213.966c0 11.285 9.181 20.466 20.466 20.466s20.466-9.181 20.466-20.466-9.181-20.466-20.466-20.466-20.466 9.18-20.466 20.466zm25.933 0c0 3.014-2.452 5.466-5.466 5.466s-5.466-2.452-5.466-5.466 2.452-5.466 5.466-5.466 5.466 2.451 5.466 5.466z"/><path d="m150.93 195.355c0 11.285 9.181 20.466 20.466 20.466s20.466-9.181 20.466-20.466c0-11.286-9.181-20.467-20.466-20.467s-20.466 9.181-20.466 20.467zm25.932 0c0 3.014-2.452 5.466-5.466 5.466s-5.466-2.452-5.466-5.466 2.452-5.467 5.466-5.467 5.466 2.453 5.466 5.467z"/><path d="m171.396 301.355c10.229 0 18.551-8.322 18.551-18.551v-20.156c0-10.229-8.322-18.551-18.551-18.551s-18.551 8.322-18.551 18.551v20.156c0 10.229 8.322 18.551 18.551 18.551zm-3.551-38.707c0-1.958 1.593-3.551 3.551-3.551s3.551 1.593 3.551 3.551v20.156c0 1.958-1.593 3.551-3.551 3.551s-3.551-1.593-3.551-3.551z"/><path d="m500.32 119.418v-55.754c0-15.351-10.694-28.242-25.021-31.638v-21.079c0-4.142-3.357-7.5-7.5-7.5s-7.5 3.358-7.5 7.5v21.079c-14.327 3.396-25.021 16.288-25.021 31.638v55.754c-6.859 2.925-11.681 9.734-11.681 17.65 0 10.576 8.604 19.18 19.181 19.18h2.711v150.472c0 11.083-4.32 21.511-12.153 29.352-.998.994-1.975 2.02-2.931 3.074-.95-1.05-1.922-2.071-2.913-3.062-7.845-7.853-12.165-18.281-12.165-29.363v-45.462h2.709c10.576 0 19.181-8.604 19.181-19.18 0-7.916-4.821-14.725-11.681-17.651v-60.691c0-15.35-10.694-28.241-25.021-31.638v-21.08c0-4.142-3.357-7.5-7.5-7.5s-7.5 3.358-7.5 7.5v21.08c-14.327 3.396-25.021 16.288-25.021 31.638v60.691c-6.859 2.926-11.681 9.735-11.681 17.651 0 10.576 8.604 19.18 19.181 19.18h2.704v45.462c0 23.007 8.963 44.64 25.237 60.914 7.837 7.838 12.153 18.265 12.153 29.361v22.458c0 24.524-19.952 44.477-44.477 44.477h-130.359c-24.524 0-44.477-19.952-44.477-44.477v-3.296h70.425c46.093 0 83.592-37.5 83.592-83.592v-.751-244.775c0-46.093-37.499-83.592-83.592-83.592h-175.608c-46.092 0-83.592 37.5-83.592 83.592v244.773.751c0 46.093 37.5 83.592 83.592 83.592h60.558v3.297c0 49.13 39.97 89.1 89.1 89.1h130.36c42.934 0 79.776-30.618 87.604-72.802.756-4.073-1.934-7.987-6.006-8.742-4.076-.758-7.986 1.933-8.742 6.006-6.509 35.078-37.148 60.538-72.855 60.538h-130.361c-40.859 0-74.1-33.241-74.1-74.1v-3.297h14.625v3.296c0 32.795 26.681 59.477 59.477 59.477h130.361c32.796 0 59.477-26.681 59.477-59.477v-22.458c0-15.102-5.876-29.296-16.546-39.967-13.442-13.441-20.845-31.308-20.845-50.308v-45.462h14.628v45.462c0 15.086 5.879 29.279 16.557 39.968 2.67 2.67 5.173 5.615 7.438 8.754 1.41 1.954 3.673 3.111 6.082 3.111s4.672-1.157 6.082-3.111c2.271-3.146 4.773-6.089 7.45-8.757 10.675-10.686 16.554-24.878 16.554-39.965v-150.471h14.631v150.475c0 18.99-7.403 36.857-20.841 50.304-10.679 10.667-16.56 24.861-16.56 39.966v7.46c0 4.142 3.357 7.5 7.5 7.5s7.5-3.358 7.5-7.5v-7.46c0-11.096 4.318-21.521 12.165-29.359 16.273-16.284 25.235-37.916 25.235-60.911v-150.475h2.7c10.576 0 19.18-8.604 19.18-19.18 0-7.915-4.821-14.724-11.68-17.65zm-191.045 204.895c-15.26 0-27.674-12.415-27.674-27.674v-90.085c0-15.259 12.414-27.674 27.674-27.674h18.517v145.433zm-294.275-145.432h18.517c15.259 0 27.674 12.415 27.674 27.674v90.085c0 15.259-12.415 27.674-27.674 27.674h-18.517zm.335 160.432h18.181c23.53 0 42.674-19.144 42.674-42.674v-90.085c0-23.53-19.144-42.674-42.674-42.674h-18.516v-76.84c0-37.822 30.771-68.592 68.592-68.592h175.608c37.821 0 68.592 30.771 68.592 68.592v76.84h-18.517c-23.53 0-42.674 19.144-42.674 42.674v90.085c0 23.53 19.144 42.674 42.674 42.674h18.181c-3.402 34.666-32.713 61.843-68.256 61.843h-175.608c-35.544 0-64.855-27.177-68.257-61.843zm360.16-175.577c0-9.661 7.859-17.521 17.521-17.521s17.521 7.86 17.521 17.521v59.162h-35.041v-59.162zm-11.681 78.342c0-2.305 1.875-4.18 4.181-4.18h50.041c2.306 0 4.181 1.875 4.181 4.18s-1.875 4.18-4.181 4.18h-50.041c-2.306 0-4.181-1.875-4.181-4.18zm86.464-178.414c0-9.661 7.859-17.521 17.521-17.521s17.521 7.86 17.521 17.521v54.224h-35.042zm42.542 77.584h-50.042c-2.306 0-4.181-1.875-4.181-4.18s1.875-4.18 4.181-4.18h50.042c2.305 0 4.18 1.875 4.18 4.18s-1.875 4.18-4.18 4.18z"/></g></g></svg>